<?xml version="1.0" encoding="UTF-8"?> <svg xmlns="http://www.w3.org/2000/svg" viewBox="0 0 520.78 600.5"> <defs> <style>.cls-1,.cls-4{fill:#333;}.cls-2{fill:#fff;}.cls-3{fill:#f2f2f2;stroke:#000;}.cls-3,.cls-4,.cls-6,.cls-7{stroke-miterlimit:10;}.cls-3,.cls-4{stroke-width:2px;}.cls-4,.cls-6,.cls-7{stroke:#f2f2f2;}.cls-5,.cls-6{fill:#231f20;}.cls-7{fill:none;}</style> </defs> <g id="Layer_2" data-name="Layer 2"> <g id="Layer_6" data-name="Layer 6"> <path class="cls-1" d="M137.09,456.17c2.95.12,5.9.43,8.85.29a26.63,26.63,0,0,0,9.46-2.33,53.87,53.87,0,0,1,9.39-3.5c3.48-.78,7-.34,10.5.14,5.67.79,11.38,2,17.14,1.69,6.1-.33,11-3,16.66-4.93,11.26-3.84,23.63-5,35.2-1.95,6.15,1.6,11.92,3.18,18.31,3.49a87.33,87.33,0,0,0,18.77-1c11.7-2,22.65-6.81,34.05-10a97.56,97.56,0,1,1-182.51,48C132.91,472.27,133.92,464.64,137.09,456.17Z"></path> <path class="cls-1" d="M197.75,376.25V278.51h-1.52a4.85,4.85,0,0,1,0-9.7h68.46a4.85,4.85,0,0,1,0,9.7h-1.51v97.74a114.51,114.51,0,1,1-65.43,0Zm32.71,214.56a104.82,104.82,0,0,0,26.64-206.2l-3.62-.95V278.51h-46V383.66l-3.62.95a104.82,104.82,0,0,0,26.64,206.2Z"></path> <circle class="cls-2" cx="291.68" cy="494.9" r="4.63"></circle> <circle class="cls-2" cx="257.53" cy="533.43" r="1.22"></circle> <path class="cls-2" d="M227.53,514.16a4.88,4.88,0,1,0,4.88-4.87A4.88,4.88,0,0,0,227.53,514.16Z"></path> <circle class="cls-2" cx="234.36" cy="473.19" r="8.29"></circle> <circle class="cls-2" cx="272.17" cy="476.36" r="3.17"></circle> <circle class="cls-2" cx="263.63" cy="509.29" r="5.37"></circle> <path class="cls-2" d="M277.78,539a5.85,5.85,0,1,0,5.85-5.85A5.85,5.85,0,0,0,277.78,539Z"></path> <circle class="cls-2" cx="240.7" cy="564.89" r="6.34"></circle> <path class="cls-2" d="M228.51,542a2.93,2.93,0,1,0,2.93-2.93A2.93,2.93,0,0,0,228.51,542Z"></path> <path class="cls-2" d="M258.75,457.09a2.44,2.44,0,1,0,2.44-2.43A2.44,2.44,0,0,0,258.75,457.09Z"></path> <path class="cls-1" d="M164.69,185c.05,1-.81,1.68-1.28,2.48s-4.12,7.22-6.35,8.79c-2.42,1.69-5.07,3-7.33,4.91a28.56,28.56,0,0,0-8.51,11.49,23.32,23.32,0,0,1-1.17,2.66l-1.26,2.39L18.26,105.32a21,21,0,0,1-1-29.67h0a21,21,0,0,1,29.68-1L164.28,184.07a1.37,1.37,0,0,1,.41.92Z"></path> <path class="cls-3" d="M9,68.78c-11.57,12.9-10.31,32.82,2.37,44.64L167.09,258.68a.8.8,0,0,1,.2.89c-1.9,4.94-1.37,11.63,3,15.26,5.25,4.35,13.83,2.8,18.48-2.18L225.7,233c4.65-5,5.6-13.64.89-18.58-3.93-4.11-10.63-4.17-15.43-1.94a.81.81,0,0,1-.9-.13L54.1,66.77A31.69,31.69,0,0,0,9,68.78ZM172,253.24,16.25,108C6.53,99,5.49,83.68,14.32,73.75a24.36,24.36,0,0,1,34.8-1.64L205.35,217.8a7.72,7.72,0,0,0,8.15,1.59c2.12-.86,5.48-2,7.55-.14,2.23,2.05,2.71,5.44-.59,8.71l-37.22,39.91c-2.67,3.14-6.19,3.2-8.41,1.22s-1.49-5.41-.8-7.53A7.93,7.93,0,0,0,172,253.24Z"></path> <path class="cls-2" d="M37.79,88.68a3.56,3.56,0,1,0,.18,5A3.56,3.56,0,0,0,37.79,88.68Z"></path> <path class="cls-2" d="M70.35,106.24a4.5,4.5,0,1,0,.22,6.35A4.48,4.48,0,0,0,70.35,106.24Z"></path> <path class="cls-2" d="M74.48,137.25a3.56,3.56,0,1,0,.18,5A3.56,3.56,0,0,0,74.48,137.25Z"></path> <path class="cls-2" d="M102,145.43a6,6,0,1,0,.29,8.48A6,6,0,0,0,102,145.43Z"></path> <path class="cls-2" d="M115.4,166.17a4.12,4.12,0,1,0,.2,5.83A4.12,4.12,0,0,0,115.4,166.17Z"></path> <path class="cls-2" d="M138.48,185.65a2.81,2.81,0,1,0,.14,4A2.8,2.8,0,0,0,138.48,185.65Z"></path> <circle class="cls-2" cx="155.06" cy="186" r="5.06"></circle> <circle class="cls-1" cx="208.37" cy="270.04" r="9.18" transform="translate(-131.23 238.27) rotate(-47)"></circle> <path class="cls-1" d="M237.16,255.64a5.81,5.81,0,1,0,.29,8.21A5.8,5.8,0,0,0,237.16,255.64Z"></path> <path class="cls-1" d="M324.19,512.23l53.33-104.49,13.56-1.93a32,32,0,0,1,4.47-.32h6.77a31.66,31.66,0,0,0,6.85-.75l10.88-2.4a31.47,31.47,0,0,1,12.23-.29l7.66,1.32,56.25,108.82c2.2,4.27-.57,9.59-5,9.59h-162C324.8,521.78,322,516.5,324.19,512.23Z"></path> <path class="cls-4" d="M311.24,538.47H507.8a11.79,11.79,0,0,0,10.07-5.77,13.17,13.17,0,0,0,.47-12.8L440.58,368.32A60.54,60.54,0,0,1,434,340.78V250.83c5.73-2.23,9.84-8.23,9.84-15.26,0-8.92-6.62-16.18-14.76-16.18H389.93c-8.14,0-14.76,7.26-14.76,16.18,0,7,4.11,13,9.84,15.26v89.95a60.57,60.57,0,0,1-6.56,27.54L300.69,519.9a13.17,13.17,0,0,0,.47,12.8A11.81,11.81,0,0,0,311.24,538.47Zm195.58-12.86H312.21l77.68-151.42a73.47,73.47,0,0,0,8-33.41V247.09a8.08,8.08,0,0,0-7.94-8.2c-.67,0-1.9-1.26-1.9-3.32s1.23-3.32,1.9-3.32H429.1c.67,0,1.9,1.26,1.9,3.32s-1.23,3.32-1.9,3.32a8.08,8.08,0,0,0-7.94,8.2v93.69a73.44,73.44,0,0,0,8,33.41Z"></path> <ellipse class="cls-2" cx="380.84" cy="460.43" rx="5.4" ry="5.85"></ellipse> <ellipse class="cls-2" cx="417.41" cy="464.03" rx="8.73" ry="9.46"></ellipse> <ellipse class="cls-2" cx="375.44" cy="507.27" rx="4.57" ry="4.95"></ellipse> <ellipse class="cls-2" cx="430.71" cy="413.15" rx="4.57" ry="4.95"></ellipse> <path class="cls-2" d="M393.52,476.19a2.29,2.29,0,1,0,2.28-2.47A2.39,2.39,0,0,0,393.52,476.19Z"></path> <path class="cls-2" d="M385,491.28a2.71,2.71,0,1,0,2.7-2.93A2.82,2.82,0,0,0,385,491.28Z"></path> <ellipse class="cls-2" cx="433.62" cy="439.72" rx="4.57" ry="4.95"></ellipse> <path class="cls-2" d="M405.78,439.94a2.71,2.71,0,1,0,2.7-2.93A2.82,2.82,0,0,0,405.78,439.94Z"></path> <path class="cls-1" d="M411.18,381.4a4.8,4.8,0,1,0,4.78-5.18A5,5,0,0,0,411.18,381.4Z"></path> <path class="cls-1" d="M401.62,313.17c0,4.73,3.54,8.56,7.9,8.56s7.89-3.83,7.89-8.56-3.53-8.55-7.89-8.55S401.62,308.45,401.62,313.17Z"></path> <path class="cls-1" d="M404.94,260.94a5.42,5.42,0,1,0,5.41-5.86A5.64,5.64,0,0,0,404.94,260.94Z"></path> <path class="cls-1" d="M405.78,356.86a5,5,0,1,0,5-5.41A5.2,5.2,0,0,0,405.78,356.86Z"></path> <ellipse class="cls-1" cx="424.89" cy="195.19" rx="8.31" ry="9.01"></ellipse> <path class="cls-1" d="M412.43,215a4.17,4.17,0,1,0,4.15-4.5A4.33,4.33,0,0,0,412.43,215Z"></path> <ellipse class="cls-1" cx="410.14" cy="176.05" rx="8.94" ry="9.68"></ellipse> <path class="cls-5" d="M213.61,314.48A15.8,15.8,0,0,0,221,327.84a9.6,9.6,0,1,0,18.85,2.58,9.63,9.63,0,0,0-.66-3.49,15.77,15.77,0,0,0,6-11.54,15.82,15.82,0,0,0,20-15.26c0-.27,0-.54,0-.81h.36a9.6,9.6,0,0,0,3.23-18.64,15.81,15.81,0,0,0,.28-11.41,15.77,15.77,0,0,0,8.83-5.53,9.61,9.61,0,0,0,15.34-5.28c.52,0,1.06.08,1.6.08a15.81,15.81,0,0,0,15.81-15.81c0-.11,0-.21,0-.31a26.23,26.23,0,0,0,28.85-29.31A15.81,15.81,0,0,0,355,199.89a25.84,25.84,0,0,0,35.07-31.18,7.38,7.38,0,1,0-7.16-11.41,25.7,25.7,0,0,0-13.38-6.55,24.19,24.19,0,0,0,1-6.85,23.91,23.91,0,0,0-12.17-20.84,23.33,23.33,0,0,0-9.67-39,15.36,15.36,0,0,0-29.6-8.21,25.89,25.89,0,0,0-23.64-1.51,15.82,15.82,0,0,0-15.58-13.22A26.23,26.23,0,0,0,264.3,33.82a10.32,10.32,0,1,0-17.68-1.17,26.24,26.24,0,0,0-11.18,6.53,15.81,15.81,0,0,0-21.93,22,26.3,26.3,0,0,0-10.94,14.07,26.53,26.53,0,0,0-7.17-1,26.13,26.13,0,0,0-13.25,3.59,7.38,7.38,0,1,0-8.5,8A26.24,26.24,0,0,0,201.86,126a25.46,25.46,0,0,0,33,18.39,23.94,23.94,0,0,0,22.68,16.29,25.47,25.47,0,0,0,2.78-.16,23.36,23.36,0,0,0,2.62,20.1A26.26,26.26,0,0,0,273.08,213a15.79,15.79,0,0,0,1.14,19.39,9.59,9.59,0,0,0-5.18,6.05,15.72,15.72,0,0,0-14.21,3.74,23.32,23.32,0,0,0-33.12-8.8,7.38,7.38,0,1,0-9.19,11.09,23.29,23.29,0,0,0,.34,18,23.94,23.94,0,0,0,2.67,44.4A15.69,15.69,0,0,0,213.61,314.48Z"></path> <path class="cls-6" d="M289.42,273.59A7.38,7.38,0,1,0,296.8,281,7.37,7.37,0,0,0,289.42,273.59Z"></path> <path class="cls-6" d="M361.15,79.51a7.38,7.38,0,1,0-7.38-7.37A7.37,7.37,0,0,0,361.15,79.51Z"></path> <circle class="cls-6" cx="293.33" cy="46.43" r="7.38" transform="translate(226.22 335.73) rotate(-85.93)"></circle> <circle class="cls-6" cx="241.21" cy="7.88" r="7.38"></circle> <circle class="cls-6" cx="255.14" cy="211.42" r="6.17" transform="translate(-41.75 64.28) rotate(-13.28)"></circle> <path class="cls-6" d="M224.71,172a10.57,10.57,0,1,0-10.56-10.57A10.57,10.57,0,0,0,224.71,172Z"></path> <path class="cls-6" d="M306.15,270.4a3.19,3.19,0,1,0,3.19-3.19A3.19,3.19,0,0,0,306.15,270.4Z"></path> <path class="cls-6" d="M393.21,147.79A3.19,3.19,0,1,0,390,144.6,3.19,3.19,0,0,0,393.21,147.79Z"></path> <path class="cls-6" d="M211.1,150.7a3.19,3.19,0,1,0-3.19,3.18A3.19,3.19,0,0,0,211.1,150.7Z"></path> <path class="cls-6" d="M347.6,61a3.19,3.19,0,1,0-3.19-3.19A3.19,3.19,0,0,0,347.6,61Z"></path> <path class="cls-6" d="M232.23,26.8a3.19,3.19,0,1,0-3.18-3.19A3.19,3.19,0,0,0,232.23,26.8Z"></path> <path class="cls-6" d="M186.87,67.11a3.19,3.19,0,1,0-3.19-3.19A3.19,3.19,0,0,0,186.87,67.11Z"></path> </g> <g id="Layer_7" data-name="Layer 7"> <circle class="cls-7" cx="341.93" cy="106.5" r="22.5"></circle> <circle class="cls-7" cx="220.93" cy="284.5" r="18.5"></circle> <circle class="cls-7" cx="294.43" cy="242" r="12"></circle> <circle class="cls-7" cx="194.93" cy="100.5" r="21.5"></circle> <circle class="cls-7" cx="277.93" cy="168.5" r="14.5"></circle> <circle class="cls-7" cx="365.93" cy="175.5" r="22.5"></circle> <circle class="cls-7" cx="255.43" cy="57" r="22"></circle> </g> </g> </svg> 