<?xml version="1.0" encoding="UTF-8"?> <svg xmlns="http://www.w3.org/2000/svg" xmlns:xlink="http://www.w3.org/1999/xlink" viewBox="0 0 2000 2000"> <defs> <style>.cls-1{isolation:isolate;}.cls-10,.cls-2,.cls-5{fill:#fff;}.cls-3{fill:#0df205;}.cls-4{fill:url(#Super_Soft_Black_Vignette);}.cls-5{mix-blend-mode:lighten;}.cls-6{fill:url(#Super_Soft_Black_Vignette-2);}.cls-7{fill:url(#Super_Soft_Black_Vignette-3);}.cls-8{fill:url(#Super_Soft_Black_Vignette-4);}.cls-9{fill:url(#Super_Soft_Black_Vignette-5);}.cls-10{stroke:#231f20;stroke-miterlimit:10;}</style> <radialGradient id="Super_Soft_Black_Vignette" cx="-1229.71" cy="1328.74" r="472.3" gradientTransform="matrix(0.31, -0.01, 0.01, 0.4, 664.97, 1012.99)" gradientUnits="userSpaceOnUse"> <stop offset="0.57" stop-color="#130c0e"></stop> <stop offset="0.8" stop-color="#130c0e"></stop> <stop offset="1" stop-color="#130c0e"></stop> </radialGradient> <radialGradient id="Super_Soft_Black_Vignette-2" cx="995.11" cy="2355.16" r="676.41" gradientTransform="translate(-103.6 477.38) scale(1.11 0.57)" xlink:href="#Super_Soft_Black_Vignette"></radialGradient> <radialGradient id="Super_Soft_Black_Vignette-3" cx="285.97" cy="1348.38" r="6.73" gradientTransform="matrix(1, 0, 0, 1, 0, 0)" xlink:href="#Super_Soft_Black_Vignette"></radialGradient> <radialGradient id="Super_Soft_Black_Vignette-4" cx="3593.31" cy="1732.05" r="293.47" gradientTransform="matrix(0.22, -0.01, 0.01, 0.36, 769.64, 1019.34)" xlink:href="#Super_Soft_Black_Vignette"></radialGradient> <radialGradient id="Super_Soft_Black_Vignette-5" cx="3449.54" cy="-290.35" r="540.32" gradientTransform="matrix(-0.19, -0.21, -0.3, 0.27, 1028.14, 1156.45)" xlink:href="#Super_Soft_Black_Vignette"></radialGradient> </defs> <g class="cls-1"> <g id="Layer_2" data-name="Layer 2"> <g id="Layer_4" data-name="Layer 4"> <circle class="cls-2" cx="1026.56" cy="862.81" r="862.81"></circle> <circle class="cls-3" cx="1231.49" cy="874.88" r="523.65"></circle> </g> <g id="Layer_1-2" data-name="Layer 1"> <path class="cls-4" d="M290.08,1354.23c-.64-7.06-1.28-12-3.48-11.76s-2.59,4.81-2.93,11.88c-5.15,109.05-56,118.86-63.09,196.29-7.27,79.25,175,82.91,142.38-.51C325,1453.28,299.88,1463,290.08,1354.23Z"></path> <path class="cls-5" d="M266.55,1467.76c-2.49,5.55-8.05,22.4-13,35.54-4.9,12.91-15.37,25.75-13.61,39.71,1.93,15.31,11.69,32.43,24.16,41.21,11.35,8,32.23,12.71,45.46,7.81,23.14-8.58-16.12-48.46-22.93-57.94-11.34-15.76-27.66-45.83-20-66.33"></path> <path class="cls-2" d="M1152.4,1379.33s32.84-3,31.91-3.14c8.35,41.67-19.8,66.78-21.8,59.71C1162.51,1435.9,1163.85,1412.29,1152.4,1379.33Z"></path> <path class="cls-2" d="M1148.85,1366.11s29.77-1.32,32.27-2c-2.31-7.08-5-20.1-13.94-23.53-3.54-1.36-22.77-.68-27.56.37l9.23,25.21"></path> <path class="cls-6" d="M567.64,1680.74c-97.25,0-385.24,16.28-267.83,76.55,38.3,19.65,142.63,29.68,24.1,47.82-69.21,10.58-140.06,4.79-204.31,21.16-246.15,62.7-99.23,153.94,320.34,115.33S1123.4,1794.37,1335,1930s435.13,55.94,316.65-83.18c-46.31-54.39,380.45-46.85,346.4-66-107.93-60.78-569.88-25.5-455-62C1923.64,1597.9,806.29,1632.49,567.64,1680.74Z"></path> <path class="cls-5" d="M639.86,1746.53c-63.75,1-84.12,21.93-87.42,44.48-5.88,40.29-63.89,52-122.45,62.58-27.19,4.89-154.69,11.77-112.49-22.82,21.64-17.73,132.22-22.1,123-51.79-4.9-15.86-25.78-18.86-40.58-25.31-25.26-11-23.48-26.3,0-35.7,96.09-38.46,460-29.6,460-8.17C859.92,1729.21,837.26,1743.36,639.86,1746.53Z"></path> <path class="cls-2" d="M1841.56,1791.2c215.55-11.48,54.91-27.87,32.32-33.34,7.39,8.82,35.17,8.58,23.2,20.25C1889.08,1785.91,1841.56,1791.2,1841.56,1791.2Z"></path> <path class="cls-2" d="M1518.58,1669.1c118.75-4.95,51.9,30.38,22.9,38.58,11.93-9.3,23.09-18.72,18.23-26.23S1518.58,1669.1,1518.58,1669.1Z"></path> <path class="cls-2" d="M1600.51,1884.45c104.13,137.69-135.59,74.2-189.55,43.57,46.35,10.08,136.69,28.33,163.92,19.37C1601.59,1938.61,1600.51,1884.45,1600.51,1884.45Z"></path> <path class="cls-7" d="M289.43,1349.94h0s-7.28-4.71-7.28-7.28"></path> <path class="cls-8" d="M1591.46,1516.55h0c-1,.1-6.25-9.07-11,.86-14.48,30.47-10.29,76.3-27.31,106-24.6,42.92,59.65,47.45,61.63-.27C1616.6,1580.2,1595.7,1575.28,1591.46,1516.55Z"></path> <path class="cls-5" d="M1599.12,1578.07c1.07,3,7,12.09,9.14,19.19a53.57,53.57,0,0,1,2.39,21.44c-.83,8.26-5.06,17.51-10.46,22.25-4.91,4.32-13.94,6.87-19.67,4.22-25.35-11.73,2.89-19.08,9.93-31.29,4.9-8.51,12-24.75,8.67-35.81"></path> <path class="cls-9" d="M663.31,109c5.5-4.46,9.44-7.42,10.68-5.85s-1.87,5-6.78,10.11c-75.69,78.64-29,139.05-135.38,276-73.91,95.14-282.68,31.92-28.73-105.19C593.47,235.3,578.52,177.72,663.31,109Z"></path> <path class="cls-5" d="M548.19,284.13c2.78-5.29,5.18-9.59,6.81-12.44a268.63,268.63,0,0,1-52.36,37.93c-18.13,10-31.8,14.64-51.93,30.35-27.06,21.11-26.73,31.91-26.61,35.58.34,10.7,15.43,30.26,40.76,12.06,14.86-10.68,11.36-20.48,24.71-37.63,18.21-23.38,34.95-17.23,45.66-38.87C537.42,306.68,540.65,298.49,548.19,284.13Z"></path> </g> <g id="Layer_2-2" data-name="Layer 2"> <path class="cls-2" d="M234.24,1842c-32.37,5.9-109.27,21.74-109.64,45.06a12.09,12.09,0,0,0,2.29,7.08c18.88,28.57,131.77,51.44,174.63,38.86a94.67,94.67,0,0,0,24.58-11c-48.68-6-127.68-7.11-146-18.15-24.17-14.53,19.33-46.14,19.33-46.14"></path> <g id="Shape_36" data-name="Shape 36"> <path d="M844.65,1142.84c5.36,5.81,15.41,2.28,20.78-3.52s8.92-13.54,15.71-17.6,18.5-.51,17.63,7.36a129.05,129.05,0,0,0-52.12,43.22l26.34-1a104.57,104.57,0,0,0-14.49,23.4,29.64,29.64,0,0,0,24.57-2.24c.54,7.18-4.29,13.48-7.47,19.93s-4.09,15.72,2,19.57c7.47,4.74,16.49-3.44,20.68-11.23s9.4-17.5,18.23-17.16a83.2,83.2,0,0,1-27.2,47.13A241.09,241.09,0,0,1,811.12,1151l31.23-16.49C843.12,1137.28,843.88,1140.06,844.65,1142.84Z"></path> <path d="M366.39,1442.35c85.55,75.89,181.82,37.76,300,108.84,253.32,140.23,489.08,75.28,489.08,75.28s76.61,17.92,240.56-46.11c139.6-54.52,152.17-45.52,187.26-66.67,1.88-1.13,4.14,1.88,2.18,2.86-113.74,56.45-189.67,135.83-284.35,173.16a845.56,845.56,0,0,1-438.71,35.11C672,1689.2,496,1586.25,366.39,1442.35Z"></path> <path d="M1725.72,1363.25c100.68-159,155.93-346.37,157.61-534.54,6.51,1.11,7.44,10.18,5.77,16.58s-3.88,14.25.94,18.78,13.22-6.69,6.64-7.33Q1890.37,902,1884,947.3c-5.5,39.34-11,78.72-19.55,117.51A763.32,763.32,0,0,1,1725.72,1363.25Z"></path> <path d="M858.53,1066.29a176.74,176.74,0,0,0-62.27,72.29,160.36,160.36,0,0,1-25.39-55.38,62.36,62.36,0,0,0,47.4-2c13.23-6.18,25.86-17.38,40.26-14.93Z"></path> <path d="M916.39,1260.52c7.29,5.94,19.49,4.28,24.92-3.4q-1,14.28-2,28.56c10.79,1.83,19.11-9.14,23.88-19s10.68-21.49,21.54-22.83l-24.21,67.44a387.25,387.25,0,0,1-41.65-26.08c-15.91-11.44-9.94-41.41,9.15-45.86Z"></path> <path d="M1203.26,1370.89c-.83,9.74,12.08,14.34,21.81,13.44s21.09-3.44,28.09,3.39c5.45,5.31,14.95-.19,18-7.15s3.12-15.19,7.37-21.5c7-10.34,23.08-10.87,33.43-3.91s15.91,19.1,19.44,31a562.59,562.59,0,0,1-245.55-5.56c2.63-9.4,15-12.16,24.53-10.1s18.56,7.17,28.32,6.9c12.13-.33,23.3-10.17,25.18-22.15,1-6.35-.36-12.91.8-19.23s6.41-12.83,12.75-11.81a92.24,92.24,0,0,0,7.31,65.85Z"></path> <path d="M662.77,110.44m0,0,20.48-30.76C405.3,188,270.09,359.47,192.6,617c-72.33,240.42-33.6,510.36,96.83,724.9C164.17,1152,118.94,911.21,166.26,688.69c53.5-251.64,141.39-394.86,377.48-547.47,200.8-102,434.44-161.44,654.2-120.58-145.73-17.56-298.4-25-434.51,29.94m-73.2,23.08c-.87,5.36,6.32,9.07,11.4,7.15s8.14-7,10.8-11.71c-6.38-4.1-16.11-1.21-19.21,5.71M754.5,60.05c4.81,1.63,7-6.63,3.94-10.7-3.3-1.67-8-.35-9.37,3.1s2,8,5.59,7.12Z"></path> <path d="M1337.69,1330.35c-1.7-7.47-2.79-16.78,3.32-21.41a290.88,290.88,0,0,1,27.78,67.62l-19.51,4.75Q1343.48,1355.82,1337.69,1330.35Z"></path> <path d="M919.68,605.52A52,52,0,0,1,880,573.94C898.08,574.57,915,588,919.68,605.52Z"></path> <path d="M1650.61,1105.09a17.39,17.39,0,0,0-1.56-18.22l32.46-8a49,49,0,0,0-32-22,36.43,36.43,0,0,1,8.25-17c5.32,12.66,20.17,20.51,33.64,17.78,2.3-10.68-3.93-22.56-14-26.74a353,353,0,0,1,37.22-44.55,48.4,48.4,0,0,0-43.22-17.75c.85-6.43,8.81-9.08,15.29-8.92s13.57,1.58,19-2,4.26-14.71-2.17-13.91l22.57-5.82c-22,175-135.75,335.82-293.37,415a100.2,100.2,0,0,1-22.07-76.44c7,17.11,20.59,32.32,38.39,37.25s39.39-2.84,46.83-19.74-4.51-40.29-23-41.16c7-12.22,25.23-.45,33.24,11.12s26.82,22.8,33.19,10.26a207.17,207.17,0,0,1-25.46-44.69,105.85,105.85,0,0,1,30.49,21.74c7.85-8.83,7.11-23.94-1.57-32A27.61,27.61,0,0,0,1567,1200.3l23.79,5.34a107.06,107.06,0,0,0-18.5-29.08l43.43-5.32c-16.84-17.18-36.52-35.59-60.56-35.23-12.21.18-30.6.41-29.91-11.78,32.13-8.92,68.32-1.64,94.5,19,12.83-7.74-8-34.41,5.58-40.73C1633.23,1098.81,1642.94,1109.34,1650.61,1105.09Z"></path> <path d="M1729,905.06c-12.72,18.44-42.69,21.4-58.78,5.81l9.22-13.43a12,12,0,0,1,2,9.51Z"></path> <path d="M882.15,639.08l-7.12,7.2c-5.87-11.76-.61-27.77,11.07-33.76a30.6,30.6,0,0,1-4.52,26.13Z"></path> <path d="M1330,1189.21a33.57,33.57,0,0,1,13.16,16.7,29.14,29.14,0,0,0-24.14,12.47,27.17,27.17,0,0,1,10.42-30.43Z"></path> <path d="M986.62,1152.18a56.09,56.09,0,0,1,27.4-32.73A63.83,63.83,0,0,1,986.62,1152.18Z"></path> <path d="M847.67,936.51a94.76,94.76,0,0,1,45.86-4.74A77.78,77.78,0,0,1,847.67,936.51Z"></path> <path d="M1070.63,1338.66a67.59,67.59,0,0,0,13.23,40.25c-9.62-2.55-19.41-7.66-23.56-16.7S1060.77,1340,1070.63,1338.66Z"></path> <path d="M1199.49,1221.61c-6.59-9.3,2.56-21.43,11-29a45.12,45.12,0,0,1-10.26,26.94Z"></path> <path d="M1863,661.9c10.55,6.33,14.07,22,7.23,32.22l-7-33.07Z"></path> <path d="M1399.86,1341.53q6.11,8.23,12.2,16.46c-2.44,10.59-19.39,10.56-26,1.9s-5.72-20.64-4.57-31.44a30.28,30.28,0,0,1,17.42,13.73Z"></path> <path d="M1264.5,42.26a75.22,75.22,0,0,1-23.66-6.14A20.89,20.89,0,0,1,1264.35,42Z"></path> <path d="M1864.69,660.92A56.36,56.36,0,0,1,1850.12,613Q1857.41,637,1864.69,660.92Z"></path> <path d="M1546.79,768.37l-14.7,7.22,5.78-13.38,9.32,5.39Z"></path> <path d="M348.78,1423.43c-3.54-.8-4.87-6.18-2.11-8.54a53.27,53.27,0,0,1,16.65,20.17,26.09,26.09,0,0,1-14.55-11.24Z"></path> <path d="M970,1116.31c.88-3.57,6.36-4.81,8.69-2l-12.82,12.8c-2.43-3.58-.29-9.29,3.9-10.39Z"></path> <path d="M1228.55,572.73c1.37,1.23-1.88,3-2.84,1.4s.11-3.55,1.19-5c4.7-6.38,52.91,11,60.43,8.55-5.46,5.87-51.76-11.48-57.61-6Z"></path> <path d="M1455.13,666.21c2-6,9.37-9.49,15.24-7.25a19.64,19.64,0,0,1-14.62,7.37Z"></path> <path d="M1885.31,790.27a10.59,10.59,0,0,1-1.59,9.14,21.38,21.38,0,0,1,0-18.29,12.14,12.14,0,0,1,1.66,9.08Z"></path> <path d="M873.48,903.55a17.33,17.33,0,0,1,17.67-4.79A18.69,18.69,0,0,1,872.88,904Z"></path> <path d="M1794.27,484.46c6.13-.55,11.75,6.11,10.15,12.07a12.32,12.32,0,0,1-10.48-12Z"></path> <path d="M1843.56,602.68a21.75,21.75,0,0,1,.09-18.23,21.64,21.64,0,0,1-.08,18.2Z"></path> <path d="M1167.11,1194.67c2-1.81,4,3.18,1.63,4.38s-5.17-.59-7.25-2.3q-8-6.62-15.66-13.62a20.93,20.93,0,0,1,20.16,9.65Z"></path> <path d="M1497.39,1007.12c3.44-.42,4.78,5.12,2.33,7.56s-6.35,2.45-9.8,2.3c-.63-2.86-1.25-5.72-1.88-8.58l9.45-2Z"></path> <path d="M1870.56,706.45c.48-4.38,8.33-2.6,8.74,1.78s-3.35,7.91-6.76,10.68a19.25,19.25,0,0,1-1.48-12.43Z"></path> <path d="M1035.17,1356.45a208.89,208.89,0,0,0-53.3-24.1l22.38-31.32c2.77-3.88,8.56-8,11.47-4.18,2,2.57.12,6.19-1.35,9.08-3.74,7.39-4.44,16.84.25,23.66s15.63,9.17,21.55,3.39A48.46,48.46,0,0,1,1035.17,1356.45Z"></path> <path d="M945.62,447.15l5.67,35.38a45.4,45.4,0,0,0-30.9-12.95,165.55,165.55,0,0,1,16.29,53.09A227.16,227.16,0,0,0,884.05,495q7,27.66,14.05,55.31c-16.05-15.35-46.6-9.94-56.4,10A20.29,20.29,0,0,1,862.34,573c-31.22-6-61.73,30.33-50.52,60.07-42.78,15.69-59.16,78-29.61,112.73l-27.44,2.55a47.14,47.14,0,0,1-17.11,31.11l27.57,16.14a86.63,86.63,0,0,0-19.47,55.33l19.65,3.41q1.88-9.14,3.76-18.29a65.52,65.52,0,0,1,41,5.29c7.42,13.88-12.24,27.26-28,27.42s-34.45-3.33-44.75,8.58L753,889.28c-16.66,11.17-9.6,42.61,10.24,45.58q-7.41,17.49-14.81,35A180.92,180.92,0,0,0,797,968L757.4,995a75.93,75.93,0,0,0,54.14-3.77c-4.63,12.75-21.39,14.52-34,19.61s-20.86,26.15-7.81,29.85l19.52.57-21.23,35.34c-17.28-42.45-30.16-86.76-37.17-132a532.14,532.14,0,0,1,13.45-224.23C797,532.62,963,380.07,1155.58,349.79s400.52,67,495.28,237.38l-27.58,28.56a44.4,44.4,0,0,0,38.68-10,647.37,647.37,0,0,1,78.25,292.84c-14.24-14.72-38-19.29-56.64-10.91a70.59,70.59,0,0,1,52.37-20.53c-19-13.47-17.62-41.26-19-64.52s-16.06-52.12-38.89-47.5a36.29,36.29,0,0,1,16.54-20.34c-11.67-7.72-11.54-24.4-12.66-38.35s-9.49-31.11-23.34-29.11c11.46-9.24,4.66-29.71-8.7-35.88s-29.05-2.45-43,2.11c9.79-24.53,16.83-53.22,4.5-76.59s-52-30.75-63.91-7.18a194.26,194.26,0,0,0-1.54-71.18l-41.41,32.94A65,65,0,0,1,1525.14,470a37,37,0,0,0-24.37-5.87,27.81,27.81,0,0,0-11.66-26.08c-6.14,11.67-24,11-34.71,3.33s-17.34-19.78-26.87-28.9c-22.18-21.2-60.82-21.94-83.8-1.59-1.92-32.08-40.2-56.07-69.9-43.81a69.45,69.45,0,0,0-26.51,40.61c-12.87-14.87-26.56-30.34-45-37.06s-43.07-1-50.57,17.15q-9-9-18-18.1-5.37,9.17-10.73,18.35c-36.77-20.18-82.89,39.33-119,18l-8.4,51.43a50.45,50.45,0,0,0-49.92-10.32M777.88,847.05c-2.36,8.23,6.44,17.33,14.74,15.26s11.78-14.24,5.84-20.39S780.23,838.83,777.88,847.05Z"></path> </g> <ellipse cx="1254.01" cy="860.9" rx="282.55" ry="295.2"></ellipse> <path class="cls-10" d="M1258.15,704c63.33,0,116.85,31,134.47,73.69a78.61,78.61,0,0,0,3.66-23.31c0-57.57-63-104.23-140.63-104.23S1115,696.84,1115,754.41a79.62,79.62,0,0,0,6.16,30.54C1135.48,738.62,1191.31,704,1258.15,704Z"></path> </g> </g> </g> </svg> 