<?xml version="1.0" encoding="UTF-8"?> <svg xmlns="http://www.w3.org/2000/svg" xmlns:xlink="http://www.w3.org/1999/xlink" viewBox="0 0 292 344.59"> <defs> <style>.cls-1{isolation:isolate;}.cls-2{mix-blend-mode:exclusion;}.cls-3{fill:url(#linear-gradient);}.cls-4{fill:url(#linear-gradient-2);}.cls-5{fill:url(#linear-gradient-3);}.cls-6{fill:url(#linear-gradient-4);}.cls-7{fill:url(#linear-gradient-5);}.cls-8{fill:url(#linear-gradient-6);}.cls-9{fill:url(#linear-gradient-7);}.cls-10{fill:url(#linear-gradient-8);}.cls-11{fill:url(#linear-gradient-9);}.cls-12{fill:url(#linear-gradient-10);}.cls-13{fill:url(#linear-gradient-11);}.cls-14{fill:url(#linear-gradient-12);}.cls-15{fill:url(#linear-gradient-13);}.cls-16{fill:url(#linear-gradient-14);}.cls-17{fill:url(#linear-gradient-15);}.cls-18{fill:url(#linear-gradient-16);}.cls-19{fill:url(#linear-gradient-17);}.cls-20{fill:url(#linear-gradient-18);}.cls-21{fill:url(#linear-gradient-19);}.cls-22{fill:url(#linear-gradient-20);}.cls-23{fill:url(#linear-gradient-21);}.cls-24{fill:url(#linear-gradient-22);}.cls-25{fill:url(#linear-gradient-23);}.cls-26{fill:url(#linear-gradient-24);}.cls-27{fill:url(#linear-gradient-25);}.cls-28{fill:url(#linear-gradient-26);}.cls-29{fill:url(#linear-gradient-27);}.cls-30{fill:url(#linear-gradient-28);}.cls-31{fill:url(#linear-gradient-29);}.cls-32{fill:url(#linear-gradient-30);}.cls-33{fill:url(#linear-gradient-31);}.cls-34{fill:url(#linear-gradient-32);}.cls-35{fill:url(#linear-gradient-33);}.cls-36{fill:url(#linear-gradient-34);}.cls-37{fill:url(#linear-gradient-35);}.cls-38{fill:url(#linear-gradient-36);}.cls-39{fill:url(#linear-gradient-37);}.cls-40{fill:url(#linear-gradient-38);}.cls-41{fill:url(#linear-gradient-39);}.cls-42{fill:url(#linear-gradient-40);}.cls-43{fill:url(#linear-gradient-41);}.cls-44{fill:url(#linear-gradient-42);}</style> <linearGradient id="linear-gradient" y1="209.29" x2="292" y2="209.29" gradientUnits="userSpaceOnUse"> <stop offset="0" stop-color="#0df205"></stop> <stop offset="0.23" stop-color="#05f2db"></stop> <stop offset="0.51" stop-color="#05dbf2"></stop> <stop offset="0.73" stop-color="#0597f2"></stop> <stop offset="1" stop-color="#020659"></stop> </linearGradient> <linearGradient id="linear-gradient-2" x1="100.24" y1="38.52" x2="164.45" y2="38.52" xlink:href="#linear-gradient"></linearGradient> <linearGradient id="linear-gradient-3" x1="125.15" y1="106.44" x2="160.03" y2="106.44" xlink:href="#linear-gradient"></linearGradient> <linearGradient id="linear-gradient-4" x1="114.51" y1="63.2" x2="171.48" y2="63.2" xlink:href="#linear-gradient"></linearGradient> <linearGradient id="linear-gradient-5" x1="168.33" y1="70.85" x2="194.89" y2="70.85" xlink:href="#linear-gradient"></linearGradient> <linearGradient id="linear-gradient-6" x1="73.55" y1="97.18" x2="97.94" y2="97.18" xlink:href="#linear-gradient"></linearGradient> <linearGradient id="linear-gradient-7" x1="196.64" y1="97.53" x2="218.3" y2="97.53" xlink:href="#linear-gradient"></linearGradient> <linearGradient id="linear-gradient-8" x1="61.76" y1="237.34" x2="97.29" y2="237.34" xlink:href="#linear-gradient"></linearGradient> <linearGradient id="linear-gradient-9" x1="226.19" y1="180.21" x2="240.22" y2="180.21" xlink:href="#linear-gradient"></linearGradient> <linearGradient id="linear-gradient-10" x1="164.04" y1="48.94" x2="176.04" y2="48.94" xlink:href="#linear-gradient"></linearGradient> <linearGradient id="linear-gradient-11" x1="120.84" y1="47.4" x2="129.85" y2="47.4" xlink:href="#linear-gradient"></linearGradient> <linearGradient id="linear-gradient-12" x1="177.5" y1="74.96" x2="185.52" y2="74.96" xlink:href="#linear-gradient"></linearGradient> <linearGradient id="linear-gradient-13" x1="50.05" y1="189.35" x2="57.64" y2="189.35" xlink:href="#linear-gradient"></linearGradient> <linearGradient id="linear-gradient-14" x1="179.67" y1="136.42" x2="192.31" y2="136.42" xlink:href="#linear-gradient"></linearGradient> <linearGradient id="linear-gradient-15" x1="102.2" y1="137.17" x2="112.23" y2="137.17" xlink:href="#linear-gradient"></linearGradient> <linearGradient id="linear-gradient-16" x1="108.9" y1="69.53" x2="116.41" y2="69.53" xlink:href="#linear-gradient"></linearGradient> <linearGradient id="linear-gradient-17" x1="200.39" y1="116" x2="204.57" y2="116" xlink:href="#linear-gradient"></linearGradient> <linearGradient id="linear-gradient-18" x1="143.33" y1="79.04" x2="144.55" y2="79.04" xlink:href="#linear-gradient"></linearGradient> <linearGradient id="linear-gradient-19" x1="190.99" y1="95.91" x2="194.41" y2="95.91" xlink:href="#linear-gradient"></linearGradient> <linearGradient id="linear-gradient-20" x1="110.13" y1="75.03" x2="112.98" y2="75.03" xlink:href="#linear-gradient"></linearGradient> <linearGradient id="linear-gradient-21" x1="187.28" y1="87.24" x2="189.73" y2="87.24" xlink:href="#linear-gradient"></linearGradient> <linearGradient id="linear-gradient-22" x1="104.84" y1="85.78" x2="106.74" y2="85.78" xlink:href="#linear-gradient"></linearGradient> <linearGradient id="linear-gradient-23" x1="108.54" y1="79.03" x2="109.85" y2="79.03" xlink:href="#linear-gradient"></linearGradient> <linearGradient id="linear-gradient-24" x1="118.36" y1="58.97" x2="120.03" y2="58.97" xlink:href="#linear-gradient"></linearGradient> <linearGradient id="linear-gradient-25" x1="101.44" y1="93.21" x2="102.41" y2="93.21" xlink:href="#linear-gradient"></linearGradient> <linearGradient id="linear-gradient-26" x1="158.72" y1="114.77" x2="160.11" y2="114.77" xlink:href="#linear-gradient"></linearGradient> <linearGradient id="linear-gradient-27" x1="197.59" y1="105.69" x2="198.43" y2="105.69" xlink:href="#linear-gradient"></linearGradient> <linearGradient id="linear-gradient-28" x1="207.43" y1="119.11" x2="208.14" y2="119.11" xlink:href="#linear-gradient"></linearGradient> <linearGradient id="linear-gradient-29" x1="190.33" y1="76.8" x2="191.43" y2="76.8" xlink:href="#linear-gradient"></linearGradient> <linearGradient id="linear-gradient-30" x1="173.67" y1="60.7" x2="174.33" y2="60.7" xlink:href="#linear-gradient"></linearGradient> <linearGradient id="linear-gradient-31" x1="236.66" y1="238.84" x2="254.12" y2="238.84" xlink:href="#linear-gradient"></linearGradient> <linearGradient id="linear-gradient-32" x1="255.03" y1="231.31" x2="261.66" y2="231.31" xlink:href="#linear-gradient"></linearGradient> <linearGradient id="linear-gradient-33" x1="256.23" y1="238.88" x2="261.29" y2="238.88" xlink:href="#linear-gradient"></linearGradient> <linearGradient id="linear-gradient-34" x1="64.56" y1="152.5" x2="78.8" y2="152.5" xlink:href="#linear-gradient"></linearGradient> <linearGradient id="linear-gradient-35" x1="222.74" y1="157.1" x2="223.45" y2="157.1" xlink:href="#linear-gradient"></linearGradient> <linearGradient id="linear-gradient-36" x1="218.63" y1="148.41" x2="219.2" y2="148.41" xlink:href="#linear-gradient"></linearGradient> <linearGradient id="linear-gradient-37" x1="98.8" y1="99.3" x2="99.11" y2="99.3" xlink:href="#linear-gradient"></linearGradient> <linearGradient id="linear-gradient-38" x1="94.58" y1="107.47" x2="95.43" y2="107.47" xlink:href="#linear-gradient"></linearGradient> <linearGradient id="linear-gradient-39" x1="211.45" y1="136.04" x2="213.05" y2="136.04" xlink:href="#linear-gradient"></linearGradient> <linearGradient id="linear-gradient-40" x1="134.62" y1="24.55" x2="139.45" y2="24.55" xlink:href="#linear-gradient"></linearGradient> <linearGradient id="linear-gradient-41" x1="149.22" y1="19.62" x2="152.1" y2="19.62" xlink:href="#linear-gradient"></linearGradient> <linearGradient id="linear-gradient-42" x1="141.83" y1="19.56" x2="143.04" y2="19.56" xlink:href="#linear-gradient"></linearGradient> </defs> <g class="cls-1"> <g id="Layer_2" data-name="Layer 2"> <g id="Layer_1-2" data-name="Layer 1"> <g id="Shape_13" data-name="Shape 13" class="cls-2"> <path class="cls-3" d="M179.17,144.94c.2,7.6.31,15,.64,22.48.12,2.66.78,5.29,1.16,7.93.32,2.23.66,4.46.89,6.7.45,4.35.67,8.72,1.29,13a25.39,25.39,0,0,0,2,5.63c1,2.36,2.09,4.65,3,7,.2.49-.1,1.22-.26,1.81-1,3.61.47,6.79,1.65,10.06,2,5.37,3.88,10.74,5.63,16.18,1.71,5.27,3.25,10.6,4.73,15.95.44,1.6.37,3.34.66,5,.31,1.84.73,1.93,2.45,1.2,6.39-2.73,12.25-6.41,18.08-10.1,3.75-2.38,7.17-5.25,10.73-7.92.17-.12.22-.4.33-.61a2.82,2.82,0,0,0-.69-.14c-1.71.08-3.43.27-5.14.28-8.78,0-17.56,0-26.34,0a1.71,1.71,0,0,1-.6,0c-.53-.25-1-.56-1.55-.84a5.07,5.07,0,0,1,1.57-.63c2.66-.06,5.32-.05,8,0,1,0,1.93.28,2.89.27q11.37-.1,22.75-.32a3,3,0,0,0,1.79-.71c2.42-2.22,4.89-4.4,7.11-6.81,3.23-3.52,6.29-7.2,9.35-10.88a2,2,0,0,0,.12-1.76c-2.35-5.05-4.77-10.07-7.2-15.08-.41-.84-1-1.58-1.38-2.44-.14-.35.14-.87.23-1.31.28.21.68.36.83.64,1.24,2.3,2.48,4.59,3.63,6.93,1.65,3.37,3.21,6.8,4.87,10.17.08.18.95.26,1,.12,2-3,4.14-6,5.85-9.17,2.66-4.94,5.09-10,7.49-15.1a58.09,58.09,0,0,0,2.74-7.14c1.2-3.73,2.36-7.48,3.27-11.28,1-4.1,1.71-8.25,2.42-12.4a56.5,56.5,0,0,0,.61-6.37c.17-2.68.35-5.37.29-8.05a122.85,122.85,0,0,0-.64-12.59c-.62-4.93-1.67-9.81-2.67-14.68-.67-3.31-1.55-6.58-2.4-9.84-.29-1.12-.82-2.17-1.17-3.28a6.33,6.33,0,0,1-.1-1.39,7,7,0,0,1,1,1.1c1.41,2.32,2.86,4.62,4.17,7,1.52,2.77,2.87,5.64,4.36,8.43a99.51,99.51,0,0,1,7.27,17.9c1.66,5.47,2.84,11.1,4,16.71a78.47,78.47,0,0,1,1.5,11.11c.39,6.27.69,12.58.57,18.86A109.92,109.92,0,0,1,290.52,200c-.56,3.94-1.18,7.9-2.13,11.76a102.53,102.53,0,0,1-3.95,13.11c-2.33,5.95-4.95,11.81-7.79,17.54a118.84,118.84,0,0,1-10.54,16.86,123.62,123.62,0,0,1-16,18.33c-3.93,3.64-8.05,7.09-12.24,10.43a108.43,108.43,0,0,1-10.33,7.39c-4.27,2.67-8.75,5-13.17,7.43a108.16,108.16,0,0,1-21.59,8.91c-5.74,1.69-11.57,3.15-17.42,4.43-4,.88-8.11,1.32-12.19,1.84-3.12.4-6.27.63-9.4.92a1.54,1.54,0,0,0-1.4,1.91,16.4,16.4,0,0,1-2.09,12.94c-1.65,2.55-5.6,4.14-8.26,2.84a17.89,17.89,0,0,1-3.92-3.24c-.79-.73-1.37-1.67-2.16-2.41a15.93,15.93,0,0,1-4.92-11.2c-.08-1.55-1.23-1.56-2.21-1.72-4-.65-7.93-1.24-11.9-1.81-.79-.12-1.41-.06-1.15,1.19.77,3.75,3.1,6.75,4.74,10.08a11.56,11.56,0,0,1,1,6.77,17.9,17.9,0,0,1-3.73,9,3.21,3.21,0,0,1-2.09,1.18c-3.2.12-6.42.16-9.62,0a4.27,4.27,0,0,1-2.8-1.47,36.08,36.08,0,0,1-5.48-8.7c-1.67-4.23-3.74-8.33-3.2-13.14a51.16,51.16,0,0,0,0-7.22,13.48,13.48,0,0,0-.45-2.82c-.25-1.05-.89-1.48-2-1.88-3.52-1.28-6.92-2.91-10.34-4.44-2.25-1-4.55-1.93-6.67-3.15-4.12-2.34-8.21-4.74-12.16-7.34A112.52,112.52,0,0,1,51.33,286c-5.37-4.63-10.52-9.52-15.49-14.57A101.4,101.4,0,0,1,27.21,261a134.09,134.09,0,0,1-7.55-11.17c-2.43-4-4.68-8.17-6.71-12.41a107.27,107.27,0,0,1-7.79-20.86c-1.07-4.41-2.3-8.79-3.26-13.23-.53-2.44-.59-5-1-7.45A125,125,0,0,1,.1,174.42a105.35,105.35,0,0,1,1.19-12c.66-4.6,1.33-9.23,2.44-13.74,1.2-4.87,2.84-9.64,4.45-14.4a76.8,76.8,0,0,1,3.75-9.43c2.26-4.55,4.84-8.93,7.29-13.39.83-1.51,1.66-3,2.51-4.53a8.16,8.16,0,0,1,.91-1.27c.14-.16.41-.19.63-.28,0,.25.16.52.09.73-.65,1.78-1.49,3.52-2,5.34-1.08,4-2.17,8.08-2.92,12.18-.81,4.48-1.27,9-1.84,13.55-.19,1.5-.22,3-.31,4.54S16,145,16,146.57c.13,4.18.16,8.39.63,12.54a123.37,123.37,0,0,0,4.61,22.3A106,106,0,0,0,28.7,200c2.69,5.14,5.83,10,8.79,15a2.59,2.59,0,0,0,1,.93c.27.13.89,0,1-.14.58-1,1-2.07,1.54-3.12,1.61-3.4,3.19-6.81,4.83-10.19.75-1.55,1.58-3.06,2.41-4.57.14-.25.46-.41.69-.62a2.37,2.37,0,0,1,.18.8,4.49,4.49,0,0,1-.37,2.09,38.07,38.07,0,0,0-4,7.85,85.32,85.32,0,0,1-4.51,8.21,2,2,0,0,0,.21,2.71c2.95,3.3,5.71,6.78,8.67,10.07,2.11,2.34,4.47,4.46,6.65,6.73a2.06,2.06,0,0,0,2.38.54,2.59,2.59,0,0,1,1.13-.14,3.39,3.39,0,0,1,.93.47,7.35,7.35,0,0,1-1,.66,3.19,3.19,0,0,1-.94.12c.16.31.24.72.49.93,2.54,2.08,5,4.24,7.69,6.15,3.21,2.32,6.54,4.49,9.9,6.61a76.54,76.54,0,0,0,7,3.93c3.65,1.82,7.41,3.42,11.07,5.23.93.46,1.19-.1,1.42-.6a3.64,3.64,0,0,0,.31-1.81c-.39-3.84.82-7.5,1.21-11.25s.55-7.38.94-11.06c.26-2.36.78-4.69,1.14-7s.59-4.56,1-6.83.79-4.29,1.17-6.44c.42-2.44.87-4.87,1.21-7.32.36-2.63.58-5.27.93-7.9a4.3,4.3,0,0,0-1.59-3.88c-2.19-2.09-1.88-1.44-.85-4.47a18,18,0,0,0,1.31-5.51,77.45,77.45,0,0,1,1.08-8.24c.18-1.4.17-2.83.37-4.23a2.68,2.68,0,0,1,.73-1.62c2.38-2,2.29-4.82,2.84-7.43,1.15-5.49,1.76-11.06,3.43-16.48,1.56-5,3-10.2,2.63-15.64-.16-2.31-.07-4.65,0-7,.06-2.57.24-5.14.27-7.7a24.18,24.18,0,0,0-.3-3.49c0-.26-.39-.71-.56-.69-.44,0-1.13.2-1.25.5a31.75,31.75,0,0,0-1.46,4.35c-.49,2-.64,4-1.29,6a8.87,8.87,0,0,1-2.21,3c-1.49,1.56-3.19,2.93-4.6,4.55-.68.77-1,1.06-1.91.4-2.18-1.63-4.47-3.1-6.57-4.82-3.1-2.54-6.11-5.19-9.07-7.88a14.18,14.18,0,0,1-1.77-2.56,3.31,3.31,0,0,0-.49-.5c-.14.19-.43.44-.38.57a6.19,6.19,0,0,0,1.06,2.4c4.71,4.46,9.22,9.17,14.73,12.71a15.8,15.8,0,0,1,1.79,1.48,10.52,10.52,0,0,1,.76.87,7.41,7.41,0,0,1-1,.62c-1.89.79-4.08,1.17-5.6,2.4-1.91,1.55-3.3,3.75-4.84,5.73-2.8,3.6-5.49,7.28-8.32,10.84a76.09,76.09,0,0,1-6,6.83c-2.46,2.45-5.32,4.51-7.74,7-1.9,1.94-3.35,4.32-5.06,6.45-1.9,2.38-3.82,4.75-5.84,7-2.45,2.78-4.93,5.55-7.58,8.14a27.26,27.26,0,0,1-4.43,3.07c-.23.15-.63,0-1,.06,0-.34.06-.68.13-1a.76.76,0,0,1,.25-.35c1.37-1.48,2.76-2.95,4.12-4.44a4.78,4.78,0,0,0,.51-.95c-.45,0-1-.19-1.31,0a20.11,20.11,0,0,0-2.34,2c-2,1.89-4,3.82-6.05,5.71a.91.91,0,0,1-.58,0c-.06-.37-.24-.86-.08-1.11.83-1.23,1.73-2.41,2.64-3.58,1.19-1.52,2.45-3,3.59-4.54.26-.37.16-1,.22-1.52-.45.09-1,0-1.32.3-2.52,2.34-5,4.75-7.47,7.09a6.43,6.43,0,0,1-1.8,1.08,2.84,2.84,0,0,1-1.09,0,2.76,2.76,0,0,1,.28-1.12c1.09-1.37,2.21-2.72,3.39-4,1.74-1.9,3.53-3.75,5.29-5.62.12-.13.26-.43.21-.49s-.5-.51-.66-.45a4.57,4.57,0,0,0-1.86.91c-2.09,2.27-4.06,4.64-6.12,6.92-.3.34-1.07.73-1.31.59-.79-.48-.77-1.22-.25-2,2.64-4,5.11-8.16,7.93-12.05,2.43-3.37.84-4.89-2.27-6.17a15.77,15.77,0,0,1-3.56-2.29,1.72,1.72,0,0,1-.38-1.58,1.2,1.2,0,0,1,1.72-.66c2.93,1.1,6,1,9.1,1,2.16,0,4.34.35,6.49.22a6.42,6.42,0,0,0,3.48-1.32A46.73,46.73,0,0,0,63.8,152.1c2.5-4.09,5.06-8.14,7.6-12.21,2.43-3.91,4.85-7.83,7.3-11.72,1.15-1.82,1.13-2.53-.26-4-.21-.22-.43-.43-.64-.64-1.58-1.58-1.55-1.64.43-2.72a4.8,4.8,0,0,0,2.3-3.09,33,33,0,0,1,3.13-5.92,4.49,4.49,0,0,1,1-1.37,4.64,4.64,0,0,1,2.21-1.21,2.5,2.5,0,0,0,2.4-1.51c1.7-3.36,3.5-6.68,5.16-10.06a5.14,5.14,0,0,0,.14-2.09c0-1.32-.3-2.74.06-4,1-3.42,2.29-6.77,3.59-10.1A6.1,6.1,0,0,1,101.08,78a38.08,38.08,0,0,0,4.31-3,4,4,0,0,1,.71-.47c.45-.2.91-.35,1.37-.51a4.73,4.73,0,0,1-.66,1.33c-3.47,3.34-5.38,7.58-7.15,12-.73,1.8-1.78,3.47-2.67,5.21-.57,1.11-.24,2.12.92,2.3,3.15.51,6.27,1.72,9.52.77a24,24,0,0,0,2.85-1.1c1.06-.45,1.19-1.37.21-2a2.64,2.64,0,0,0-1.76-.42c-2.91.5-4.71-1.4-6.66-3-.18-.15-.18-.52-.27-.78.26-.07.55-.25.78-.19,1.94.51,3.88,1,5.8,1.61,1.25.37,2.46.85,3.69,1.26s1.62,0,1.46-1.19a6.77,6.77,0,0,0-3.27-5c-1.27-.81-2.58-1.57-3.79-2.46-.36-.27-.43-.94-.64-1.42a5.68,5.68,0,0,1,1.54,0c1.61.44,3.19,1,4.8,1.47,1.87.5,2.44,2,2.84,3.58s.6,3.46,1,5.18a4.3,4.3,0,0,0,.72,1.18c.16-.32.33-.64.46-1,1.34-3.55.19-7-.41-10.46a24.81,24.81,0,0,1-.17-4.14c0-.23.31-.45.48-.67a4.49,4.49,0,0,1,1,.95,17.88,17.88,0,0,0,1.56,3.09c1.66,2,3.52,3.74,5.29,5.59.73.76,1.45,1.53,2.21,2.26,1.1,1,2.27,2,3.36,3.11.23.22.22.68.32,1-.38,0-.87.1-1.12-.1-.93-.71-1.79-1.51-2.66-2.32-1.7-1.58-3.37-3.21-5.11-4.76a1.88,1.88,0,0,0-1.3-.33c-.18,0-.48.69-.4,1,1,3.35-1.39,5.57-2.73,8.12-.59,1.11-1.14,2.26-1.83,3.3s0,1,.61,1.07c1.26.12,2.53.15,3.78.33a4.58,4.58,0,0,1,1.35.73,4.22,4.22,0,0,1-1.32.42c-1.26,0-2.53-.26-3.79-.22a1.56,1.56,0,0,0-1.15,1c-.07.94.28,1.89,1.44,2,1.35.08,2.71,0,4.06,0,1.87.06,3.73.16,5.59.31.31,0,.59.37.89.56-.34.21-.67.6-1,.59-2,0-3.93-.23-5.9-.24a7.12,7.12,0,0,0-2.3.6c-.29.1-.68.46-.68.71s.37.61.66.75a3.6,3.6,0,0,0,1.37.31c2.05,0,4.11,0,6.17,0a2.39,2.39,0,0,1,.89,0,3.63,3.63,0,0,1,.76.71,2.76,2.76,0,0,1-.81.46c-1.87.33-3.75.65-5.64.91-1.73.24-4,2.15-4.32,3.8a1.89,1.89,0,0,0,.66,1.47c.24.19,1,0,1.38-.3a16.35,16.35,0,0,1,7.28-3.13c.46-.07,1,.27,1.47.41-.44.26-.87.54-1.32.76-1.89.9-3.8,1.74-5.67,2.67a2.33,2.33,0,0,0-1,1c-.17.37-.22,1.07,0,1.28a1.45,1.45,0,0,0,1.31.11c1.74-.78,3.43-1.65,5.14-2.49.25-.12.49-.4.73-.39a6.89,6.89,0,0,1,1.33.24,3.32,3.32,0,0,1-.66.84c-1.3.84-2.65,1.61-4,2.43a11.3,11.3,0,0,0-2,1.44,1,1,0,0,0-.19,1.57,8.84,8.84,0,0,0,5.62,3.87,1.7,1.7,0,0,0,2.2-1.24c1.34-3.4,4-5.92,6.52-8.43.12-.12.46,0,.71,0,0,.27.05.63-.09.82-1,1.31-2,2.58-3,3.9s-2.27,2.43-2.43,3.77a50.83,50.83,0,0,1-1.47,5.49c-.11.5.47,1.16.73,1.75.44-.31,1-.52,1.3-.94,1.44-2.3,2.78-4.66,4.2-7,.21-.34.65-.54,1-.81a5.48,5.48,0,0,1,.54,1.22c.29,1.47-.66,2.53-1.38,3.62-1.12,1.71-2.34,3.35-3.5,5s-1.11,4.19.06,5.31c.57.54.81,1,1.32-.26a42.75,42.75,0,0,1,3.11-5c.43-.71.64-1.55,1.1-2.24.23-.35.78-.48,1.19-.71,0,.42,0,.85,0,1.27,0,.27-.26.6-.18.8a4.58,4.58,0,0,0,.73.94c1.31-1.14,2.4-.22,3.61.27,1.5.61,3.1,1,4.63,1.54a4.65,4.65,0,0,1,2.62,2.75,11.65,11.65,0,0,0,1.9,2.36c.1-1,.22-2,.28-3,.11-1.88.19-3.77.3-5.65a16.94,16.94,0,0,1,.19-1.73,4.05,4.05,0,0,1,.33-1.36c.15-.27.58-.38.89-.56a3.43,3.43,0,0,1,.27.86c0,1.42-.11,2.85,0,4.26a42.53,42.53,0,0,0,.89,4.74,2.14,2.14,0,0,0,.71,1.19,1.57,1.57,0,0,0,1.28.26c.24-.09.36-.74.38-1.14s-.28-.73-.25-1.08a3,3,0,0,1,.48-1,2.91,2.91,0,0,1,.68.62c.26.49.38,1.05.63,1.54.12.23.41.37.62.54.19-.25.56-.51.54-.74a5.59,5.59,0,0,0-.42-2.22c-2.34-4.39-2.92-9.26-4-14a.83.83,0,0,1,.33-.69.72.72,0,0,1,.68.25,12.55,12.55,0,0,1,1,2.89,33.87,33.87,0,0,0,3.51,11.2,5.27,5.27,0,0,0,.8.91c.28-.27.57-.52.84-.81.59-.62,1.05-1.54,1.77-1.85,1.55-.65.87-1.42.37-2.28-.62-1.09-1.25-2.19-1.82-3.31-.13-.25,0-.62,0-.94.35.15.81.21,1,.47.77,1,1.42,2,2.16,3s1.36.82,2.07,0,1.61-1.72,2.3-2.67a1.33,1.33,0,0,0-.29-1.23c-2.53-1.84-5.13-3.6-7.68-5.42-1.73-1.23-1.54-3.37-2.27-5.07-.06-.14.26-.51.47-.65s.46.15.59.32a54.74,54.74,0,0,0,3.77,4.89,57.76,57.76,0,0,0,5.42,4.68c.88.71,1.31.11,1.14-.75-.86-4.4-1.74-8.79-2.71-13.17a4.5,4.5,0,0,0-3.83-3.55c-.44-.09-.81-.51-1.21-.78a13.41,13.41,0,0,1,1.37-.68c.68-.24,1.81.54,1.9-1,.06-1-.14-1.62-1.37-1.5a20.7,20.7,0,0,1-3.15,0,2.8,2.8,0,0,1-.88-.41c.23-.25.41-.63.69-.72.63-.19,1.34-.16,2-.38A5.24,5.24,0,0,0,166.47,99c.15-.15-.12-1.12-.39-1.23a3.72,3.72,0,0,0-1.82-.07c-.83.12-1.63.41-2.46.56-.18,0-.4-.22-.6-.33.11-.18.19-.43.35-.53a9,9,0,0,1,2.21-1.19c2.14-.55,2.6-1.12,2.15-3.19a5.53,5.53,0,0,0-.62-2c-1.18-1.7-.19-3.67-.84-5.43s-1-3.42-1.44-5.13-.08-2,1.56-1.81c.61.07,1.33-.49,1.94-.85.31-.19.45-.67.76-.86a4.82,4.82,0,0,1,1.21-.34c0,.34,0,.77-.17,1-1.08,1.41-.43,2.6.24,3.94a5.13,5.13,0,0,1,.52,2.82c-.17,1.38.49,2.73,1.88,2.72a11.37,11.37,0,0,0,3.8-.6c2.44-.87,4.81-2,7.2-3,1.36-.59,2.7-1.24,4-1.86.17-.08.36-.26.5-.23.68.14,1.34.33,2,.5a12.37,12.37,0,0,1-1.42,1c-1.77.93-3.47,2.16-5.36,2.62a18.34,18.34,0,0,0-5.41,1.9,28.42,28.42,0,0,0-3,1.86,1.48,1.48,0,0,0-.26,1.45c.49.71,1.19,1.63,1.91,1.73,1.7.25,3.57.33,4.76-1.35.53-.75.77-1.69,1.25-2.48a4.53,4.53,0,0,1,1-.9,6.61,6.61,0,0,1,.43,1.17,10.26,10.26,0,0,1,0,1.36c.05,1.18.66,1.51,1.84,1.21,2-.49,3.94-.94,5.93-1.3a3.84,3.84,0,0,1,1.49.35,6.11,6.11,0,0,1-1.33.8c-2.15.65-4.32,1.21-6.47,1.84a2,2,0,0,0-.95.57,1,1,0,0,0,0,.88c.07.14.54.18.79.11s.74-.4,1.14-.49a5.43,5.43,0,0,1,1.21,0,5.59,5.59,0,0,1-.59,1c-1.39,1.65-2.93,3.2-4.19,4.94-1.05,1.45-.17,2.8,1.66,2.89,2.14.11,3.84-1,5.4-2.19,2.43-1.84,4.77-2.21,7.34-.4.64.45,1.39.76,2,1.19a2.86,2.86,0,0,1,.59.73,3.39,3.39,0,0,1-.9.36c-2.32.12-4.64.19-6.95.33-.45,0-1.21.16-1.27.39-.11.42.2.95.35,1.42.86,2.74,3,3.07,5.46,3a18.93,18.93,0,0,1,7.67,1,1.4,1.4,0,0,0,1.18-.15c.17-.13.11-.78-.06-1.08-1.16-2.08-2.27-4.21-3.61-6.17-3-4.34-5-9.16-7.24-13.87-1.33-2.77-2.95-5.4-4.5-8.07a4.25,4.25,0,0,0-1.33-1.23,2.87,2.87,0,0,1-1.35-3.17,1.15,1.15,0,0,1,.33-.6c.05,0,.37.11.5.25,1.07,1,2.12,2.08,3.16,3.15a3.21,3.21,0,0,0,2.65,1.31c1.59-.07,3.08,1.77,3.6,3.72,1.15,4.33,2.32,8.66,3.64,13a7.89,7.89,0,0,0,2,3.48,18.09,18.09,0,0,1,6,10,6.59,6.59,0,0,0,2.16,3.32c.78.77,1.41,1.49.24,2.53a5.83,5.83,0,0,0-1,1.84c-.43-.62-.84-1.25-1.3-1.85-1.92-2.54-4.12-4.62-7.49-5.13a4,4,0,0,0-4.31,2.2,15.11,15.11,0,0,0-1.21,4c-.37,2.32-.82,2.74-2.75,2.92-.52,0-1.37.62-1.42,1-.12,1,.81.66,1.4.75,1.27.18,2.54.45,3.82.57a10,10,0,0,0,1.83-.27c1.87-.22,3.74-.46,5.62-.59a22,22,0,0,1,3.81,0c1.4.15,1.87-.81,2.4-1.73s1.15-2.13,1.76-3.18c.11-.2.41-.29.62-.43a2.48,2.48,0,0,1,.33.62c.45,2.15.54,2.13,2.7,2.34.64.07,1.22.84,1.82,1.3.29.21.56.45.84.67,1.15-1.44,2.26-.4,3.34.1a4,4,0,0,1,1.22,1,1.12,1.12,0,0,1,.28.89,1.17,1.17,0,0,1-.83.44c-.7.06-1.41,0-2.11,0a2.54,2.54,0,0,0-2.21,3.09,23.54,23.54,0,0,0,3.6,7.85c2.26,3.5,4.21,7.2,6.43,10.72,1.92,3,4,6,6.08,8.92a105.74,105.74,0,0,0,7.07,9.09,19.21,19.21,0,0,0,5.23,3.64,65.71,65.71,0,0,0,15.39,6.08,7.93,7.93,0,0,1,2,1.27,8.16,8.16,0,0,1-2.35.76c-2,0-4-.19-6-.24a1.46,1.46,0,0,0-1.54,2.09c1.11,3.3,2.32,6.57,3.37,9.89.6,1.87,1,3.81,1.41,5.73.07.35-.24.79-.37,1.19a4.83,4.83,0,0,1-.79-.92c-1.23-2.45-2.38-4.94-3.66-7.36-.33-.64-1.34-1.61-1.51-1.51-.9.51-1,1.35-.64,2.44.93,2.48,1.69,5,2.47,7.56a6.64,6.64,0,0,1,.29,2,3.93,3.93,0,0,1-.42,1.17c-.36-.3-.85-.52-1-.9-1.05-2.07-2-4.17-3-6.26-.49-1-1-2-1.53-3-.2-.32-.7-.45-1.05-.67-.08.41-.32.88-.2,1.23,1.13,3.29,2.33,6.56,3.47,9.85.11.32-.08.75-.13,1.13-.31-.14-.77-.19-.92-.44-1.41-2.36-2.79-4.75-4.15-7.15-.44-.77-.76-1.6-1.21-2.35-.14-.23-.54-.29-.81-.43a2.84,2.84,0,0,0-.34,1c.25,2.59.58,5.17.82,7.77a3.77,3.77,0,0,1-.38,1.33c-.37-.42-.93-.79-1.06-1.27-.38-1.37-.53-2.79-.87-4.17-1-4-3.34-7.45-5.27-11.06a94.69,94.69,0,0,1-4.68-9.94c-1.18-3-2.61-5.57-5.4-7.38a28.19,28.19,0,0,1-4-3.69c-3.56-3.52-7.11-7-10.62-10.63-1.08-1.11-2-2.42-3-3.56-1.38-1.49-2.84-2.94-4.91-3.38a5.3,5.3,0,0,0-2.77.08c-2,.74-3.42-.24-4.55-1.5a10.29,10.29,0,0,1-2.67-5.8c0-.39.27-.81.27-1.22a20.77,20.77,0,0,0-.16-4.11,2.68,2.68,0,0,0-1.54-1.8c-5.07-1-7.31-4.87-9.07-9.06-1.07-2.52-1.65-5.24-2.48-7.86-.07-.24-.36-.56-.55-.57a1.12,1.12,0,0,0-.86.38,5.25,5.25,0,0,0-.46,5.4c.51,1,.79,2.09,1.3,3.07,1.22,2.36.26,4.78.25,7.16,0,1.72-.41,3.44-.55,5.17s-.15,3.64-.33,5.44a3.9,3.9,0,0,1-4,3.41,7.1,7.1,0,0,0-5,1.69,2.89,2.89,0,0,1-1.81.22c-1.65-.13-3.29-.23-4.77.71a2.28,2.28,0,0,1-3.6-1.56,2.1,2.1,0,0,0-.31-.91,8.29,8.29,0,0,0-1.07-1c-.23.55-.79,1.24-.63,1.62a5.62,5.62,0,0,0,3.67,3.57c2.17.7,3.92.25,5.9-.36s4.1-.73,6.09-1.29a23.33,23.33,0,0,0,3.64-1.74c1.19-.59,1.84-.2,2,1.16.07.66.2,1.31.3,2.12m111.38,27.25c-.3-2.83-.57-5.67-.91-8.5a81,81,0,0,0-1.25-8.82c-1.23-5.23-2.58-10.44-4.22-15.55-1.33-4.19-3.05-8.27-4.79-12.31s-3.77-8.17-5.71-12.23c-.11-.24-.5-.35-.76-.52a3.24,3.24,0,0,0,0,.82c.86,3.65,1.91,7.27,2.56,11a97.68,97.68,0,0,1,1.77,13.69c.2,6.43.47,12.9-.5,19.32-.58,3.79-.77,7.66-1.59,11.4-1,4.73-2.42,9.4-3.86,14A86.3,86.3,0,0,1,268,193a98.07,98.07,0,0,1-4.78,10.35c-2.9,5.05-6.2,9.88-9.28,14.83a2,2,0,0,0,.05,1.33c.32,1.16.75,2.3,1.06,3.47.06.19-.23.48-.36.73-.21-.17-.52-.3-.62-.52-.31-.67-.5-1.39-.81-2.07a5,5,0,0,0-.7-.91,6.7,6.7,0,0,0-.74.66c-2.42,2.91-4.68,6-7.27,8.7a87.57,87.57,0,0,1-11.37,10.57c-2.37,1.76-4.45,3.93-6.89,5.58q-7.31,4.94-14.88,9.47c-2.7,1.63-5.61,2.91-8.46,4.28-.82.39-1,.79-.7,1.67a20.12,20.12,0,0,1,1,3.64,66,66,0,0,1,.89,6.84,34.73,34.73,0,0,1-.14,6.61c-.56,4-3.18,6.83-6.27,8.91-5.08,3.41-10.44,6.43-15.77,9.46-4.13,2.34-8.37,4.48-12.6,6.63a5.15,5.15,0,0,0-3.13,4.41,3.5,3.5,0,0,1-2.81,3.18,4.72,4.72,0,0,0-2.25,1.51,1.86,1.86,0,0,1-2.52.64,7.2,7.2,0,0,1-1.51-.71,1.26,1.26,0,0,0-2,.46,30.76,30.76,0,0,0-2,4.11c-.08.18.34.83.52.83a33.94,33.94,0,0,0,3.49-.27c3.2-.38,6.39-.79,9.58-1.2,2.39-.3,4.81-.43,7.15-.94,4-.87,8-2,12-3a124.06,124.06,0,0,0,22.67-8.14,128.75,128.75,0,0,0,16.86-9c2.94-1.92,5.87-3.87,8.65-6q6.38-4.9,12.51-10.11c2-1.71,3.79-3.7,5.64-5.6,2-2.06,4-4.13,6-6.26,1.13-1.25,2.17-2.6,3.18-3.95,2.06-2.75,4.19-5.45,6.06-8.33,2.85-4.36,5.65-8.76,8.17-13.32a89.63,89.63,0,0,0,5-10.86c2-5.05,3.9-10.15,5.41-15.36a120.57,120.57,0,0,0,4.24-22.77c.35-3.87.52-7.76.6-11.64.06-2.81-.17-5.63-.27-8.75M19,179.11a41,41,0,0,0-.93-4.43c-1.75-5.48-2.23-11.18-2.93-16.83a85.83,85.83,0,0,1-.35-9.5c-.05-3-.16-6,0-9,.22-3.3.72-6.6,1.18-9.88.31-2.21.67-4.42,1.19-6.59.6-2.54,1.41-5,2.08-7.56.08-.31-.13-.7-.2-1.05a4,4,0,0,0-.69.79c-.53,1.08-.94,2.22-1.51,3.28A113.72,113.72,0,0,0,6.6,143.7c-1.42,5.45-2.73,11-3.78,16.48A82.9,82.9,0,0,0,1.6,171.42c-.2,4.12-.16,8.26,0,12.39s.49,8.48.89,12.72A65.43,65.43,0,0,0,3.7,204.9c1.27,5.47,2.63,10.93,4.23,16.31a85.72,85.72,0,0,0,3.89,10,149.17,149.17,0,0,0,6.42,13.59A111.73,111.73,0,0,0,30.64,263c3.79,4.37,7.59,8.73,11.51,13a50.33,50.33,0,0,0,5.7,5.11C52.74,285,57.53,289,62.69,292.5a167.17,167.17,0,0,0,15.4,8.94c4.22,2.23,8.65,4.06,13,6.05a4.39,4.39,0,0,0,1,.22,4,4,0,0,0-.44-1.12A29.2,29.2,0,0,1,89.48,304c-2-3.24-1.63-6.61-.51-10.07a29.16,29.16,0,0,0,1.61-7.14A42.34,42.34,0,0,1,92.39,277c.89-2.89,2.07-5.72,1.9-8.86a14.78,14.78,0,0,1,.08-4.84c.43-1.45-.38-1.82-1.18-2.13a114,114,0,0,1-18.39-9.36,114.22,114.22,0,0,1-17.08-12.58c-1-.92-2-2-3.71-1.59a12.16,12.16,0,0,1-2.88.31c-5.63-.07-11.26-.2-16.88-.27-1,0-2,.21-3,.26-.24,0-.48-.26-.73-.4.16-.18.29-.46.48-.51a17.33,17.33,0,0,1,3.56-.83c1.56-.08,3.13.23,4.69.25q6.7,0,13.4,0a7.4,7.4,0,0,0,1.51-.32l-1-1c-.18-.17-.36-.35-.53-.53-3.05-3.24-6.12-6.46-9.12-9.75-1.3-1.42-2.43-3-3.63-4.51-.2-.24-.36-.51-.54-.77a3.38,3.38,0,0,0-.59.67c-1.55,3-3,6.07-4.62,9.07-1.25,2.35-2.58,4.65-3.92,6.95-.16.28-.62.38-.94.57a8.68,8.68,0,0,1-.16-1.22c0-.21.19-.42.3-.62,2.41-4.72,4.73-9.5,7.28-14.14,1.11-2,1.18-3.31-.32-5.4a96.77,96.77,0,0,1-10.91-19.23c-2.31-5.56-4.17-11.32-6.37-17.14m107.62,101.3a6.84,6.84,0,0,1-1.15,1.19c-2.64,1.65-5.47,3.11-7.13,5.91s-2.89,5.59-2.14,9a18.56,18.56,0,0,1,.59,4.85c-.17,4-.54,8-.88,12-.09,1.12.4,1.59,1.42,1.75,1.55.25,3.09.55,4.64.77,2.62.37,5.23.7,7.85,1,.76.1,1.07-.18,1.2-1.05a23.42,23.42,0,0,1,1.21-5.2c1.13-2.79.41-5-1.33-7.27a14.14,14.14,0,0,1-2.4-4.25c-.56-1.81-.42-3.82-.87-5.67A5.08,5.08,0,0,1,129,288a8.73,8.73,0,0,0,1.69-2,5.55,5.55,0,0,1,7.76-2c1.09.62,2.23,1.19,3.29,1.85a14.87,14.87,0,0,0,6.33,1.84,9.07,9.07,0,0,0,5.27-.58c3.27-1.6,5.33-4.55,7.8-7.05,2.12-2.14,4.3-4.21,6.48-6.29,1.17-1.12,2.39-2.19,3.56-3.29a2,2,0,0,0,.33-.63c-.26-.1-.53-.31-.78-.28-1.52.17-3,.41-4.56.58-4.46.51-8.9,1.2-13.37,1.46s-8.82.11-13.23,0c-2.08,0-4.14-.46-6.22-.54-1.27-.05-2.73-.5-3.76.68a6.76,6.76,0,0,0-1.62,3.85,24.54,24.54,0,0,1-1.3,4.77m33-30.55c-1-1.3-2.09-2.53-2.95-3.9-1.22-1.94-2.11-4.08-3.41-6-1.84-2.65-5.66-3.84-8.54-.94a52.53,52.53,0,0,0-9.65,13.34c-2.53,5-4.37,10.12-4.38,15.8a1.42,1.42,0,0,0,1.52,1.65c2.92.23,5.85.57,8.78.58,5.07,0,10.15-.12,15.22-.29a53.06,53.06,0,0,0,5.32-.58c2.74-.38,5.48-.89,8.23-1.17,1.86-.19,2.2-.46,1.15-2.09-2.32-3.57-4.79-7.05-7.2-10.56-1.32-1.92-2.63-3.83-4.09-5.89M54.84,180c.88-.88,1.71-1.81,2.65-2.62a12.16,12.16,0,0,0,3.4-5.53c.58-1.67,1.46-3.33,3.18-4,3.56-1.45,5.58-4.74,8.54-6.92,2-1.48,3.46-3.72,5.16-5.63a9.76,9.76,0,0,0,.85-1.15,21.74,21.74,0,0,0,2.95-8.69c.22-1.31.6-2.78-.23-4.13-.59-1-1.09-2-1.62-2.94-.89-1.65-2-1.5-2.89-.48-2.84,3.28-5.76,6.49-8.38,9.93-2.3,3-4.21,6.37-6.32,9.55-1.81,2.74-4.05,5.19-5.26,8.35a3.92,3.92,0,0,1-2.49,2.3,35.43,35.43,0,0,1-6.73-.32c-1.85-.18-3.69-.56-5.54-.73-.43,0-.91.43-1.37.66a10.68,10.68,0,0,0,.84.93,7,7,0,0,0,1.18.77c1.16.63,1.61,1.41.85,2.68a23.11,23.11,0,0,0-1.11,2.55,3.33,3.33,0,0,0,1,4c1.61,1.54,3.29,3,4.85,4.59a2,2,0,0,0,3,.08c1.2-.94,2.27-2,3.55-3.22m179.72-14.75q-2.12-4-4.22-8c-1.22-2.35-2.38-4.74-3.67-7-.74-1.31-1.49-2.64-3.14-3.16a32,32,0,0,1-4.91-2c-1.75-.87-3.37-2-5.12-2.89-.41-.2-1.14.26-1.73.41.25.42.41,1,.77,1.22,2.37,1.73,5.27,3,5.16,6.65,0,0,0,.13,0,.15.49.42.93,1,1.49,1.19.27.08.81-.58,1.18-1a14.93,14.93,0,0,1,1-1.22c.17-.15.63-.06.89.06s.16.48.1.69c-.29.93-.63,1.84-.94,2.77-.76,2.24-.6,4.34.94,5.6a49.72,49.72,0,0,0,4.15,3c2.4,1.58,4.58,3.34,5.61,6.15.65,1.78,1.15,3.63,1.9,5.38.33.77.68,2,2,1.6.87-.28,1.83-2.87,1.41-3.76-.89-1.9-1.9-3.73-2.85-5.9M104.36,97.38c-1.69-.28-3.39-.5-5.06-.87s-2.41-.06-2.28,1.81a25.05,25.05,0,0,0,.75,4.19c.34,1.42-.09,2.16-1.49,2.41a18.17,18.17,0,0,0-2.16.59c-1.8.56-2.13,1.29-1.52,3,.08.23-.14.81-.32.86-3.08.91-5.45,2.91-7.67,5.08a2.56,2.56,0,0,0-.09,3.64,21.6,21.6,0,0,0,3.65,2.42c.17.1.59-.21.89-.32a4.89,4.89,0,0,0-.45-.64c-.77-.79-1.56-1.55-2.33-2.34s-.79-1.22.26-1.82c1.91-1.09,3.79-2.28,6-2.56a2.57,2.57,0,0,0,2.5-2.21,5.92,5.92,0,0,1,.74-1.49c.78-1.39,4.68-2.39,5.75-1.27,1.27,1.33,2.81,2.67,2.42,4.92-.06.31.33.84.65,1a10.46,10.46,0,0,0,2.16,1,1,1,0,0,0,.87-.28,1.06,1.06,0,0,0-.11-1c-.6-.63-1.34-1.12-2-1.72a1.92,1.92,0,0,1-.71-1c-.18-2,.34-2.7,2.59-3.47a9.91,9.91,0,0,0,1-.47,8,8,0,0,0-.67-1.22,1.11,1.11,0,0,0-.72-.4c-2.25-.17-4.5-.28-6.75-.48-.29,0-.82-.44-.8-.63.19-1.81.81-2.09,2.47-1.33.72.33,1.66.83,1.69-.71,0-.07.59-.26.67-.18,1.74,1.86,3.64,1,5.46.29s1.77-1.37.64-2.68c-1.54-1.77-3.57-2.13-6-2.12m100.39,28.75c-2.05,1.45-4.13,2.88-6.13,4.39-.38.29-.47.94-.7,1.42.51,0,1,.07,1.54.08a1,1,0,0,0,.41-.1c1.86-1.08,3.71-2.17,5.58-3.22a2.08,2.08,0,0,1,1.07-.29,5.44,5.44,0,0,1,1.19.37c-.3.27-.61.53-.91.81a13.68,13.68,0,0,0-2.18,2.19c-.27.42.08,1.25.15,1.89.58-.09,1.32,0,1.7-.3,1-.85,1.83-1.94,2.82-2.83a14,14,0,0,1,2.26-1.53c.16-.1.46.05.69.09a6.62,6.62,0,0,1-.24.62c-.71,1.36-1.48,2.7-2.12,4.09-1.18,2.59-.23,3.69,1.77,4.83,1.79,1,3.54,2.13,5.26,3.28s3.07,2.24,4.65,3.3c.32.21.85.1,1.29.14a4.1,4.1,0,0,0,0-1.11,13,13,0,0,0-.8-2.07c-1.57-3-3.25-6-4.75-9-1.27-2.57-2.25-5.28-4.34-7.38a3,3,0,0,1-.61-1.69c-.2-1.58-.42-1.85-1.89-1.17-1.9.89-3.68,2-5.66,3.2m37,44.25a17.57,17.57,0,0,1,.86-1.74c.76-1.16.05-1.85-.68-2.6-1.58-1.64-3.24-3.21-4.67-5-1.77-2.18-3.33-4.53-5-6.79a2.53,2.53,0,0,0-.73-.46c-.1.31-.34.66-.26.91a10.83,10.83,0,0,0,.83,2.06c1.86,3.59,3.85,7.12,5.59,10.77s5.27,6.24,6.23,10.37c0,.18.46.29.7.43a3.1,3.1,0,0,0,.43-1c0-.45-.25-.91-.25-1.37a2.43,2.43,0,0,1,.35-.92c.27.21.67.37.8.65.39.83.62,1.75,1,2.58.74,1.55,1.41,1.62,2.3.23s1.81-2.95,2.66-4.46c.73-1.3.48-2.22-.86-3.07a27.65,27.65,0,0,0-2.59-1.35c-2.42-1.18-3.22-1-5.25.79-.43.39-.82,1-1.47,0m-88.35-24.53a31.85,31.85,0,0,1-3.64.28q-6.93-.23-13.88-.6a25.24,25.24,0,0,1-5-.62c-5-1.31-9.87-2.8-14.81-4.15a6.12,6.12,0,0,0-1.94.11c.54.45,1,1.13,1.64,1.33,5.6,1.74,11.1,3.85,17,4.28,3.3.24,6.58,1,9.88,1.12a82.24,82.24,0,0,0,8.59-.26c3.18-.16,6.35-.38,9.52-.61.2,0,.39-.26.58-.4-.17-.16-.31-.39-.52-.47-2.38-.92-4.77-.38-7.46,0M127.69,196a31.75,31.75,0,0,0-3.29-.73c-1.7-.19-3.42-.26-5.13-.29-.3,0-.61.44-.91.67a3,3,0,0,0,.79.49c2.55.55,5.14.95,7.44,2.35,3.54,2.15,7.45,2.34,11.43,1.84.4-.05.74-.62,1.11-1-.38-.38-.95-1.14-1.12-1.06-2,.91-3.4-.75-5.11-1a37.21,37.21,0,0,1-5.21-1.32M184,110.17c.5,1.13,2,2.19.19,3.46-.1.07-.09.55,0,.57a2.55,2.55,0,0,0,.82.12,10.73,10.73,0,0,1,2.71,0c1.78.43,5.51-.62,6.6-2a1.56,1.56,0,0,0-.61-2.5c-.74-.18-1.52-.21-2.28-.32-2-.27-4-.53-6-.84-.82-.13-1.4.34-1.43,1.59m-13.39-2.55a5.58,5.58,0,0,0,2.74,3.36c.91.6,1.73.91,2.48-.16a2,2,0,0,0-.29-2.74,12.65,12.65,0,0,0-2-1.37c-.34-.24-.64-.52-1-.78.45-.24.89-.5,1.36-.71.17-.07.41,0,.59,0,.9-.29,1.84-.65,1.61-1.84-.2-1-.31-2.16-1.85-2.08-1.25.07-2.51,0-3.76,0a1.07,1.07,0,0,0-1,1.71,8.93,8.93,0,0,1,1,4.61m4.51-13.25c-1.64.5-3.28,1-4.93,1.5a1.66,1.66,0,0,0-.92,2.88c.87,1,4.23,1.28,5.29.37.68-.57,1.22-1,2.26-.59a1.56,1.56,0,0,0,2.19-1.1,6.41,6.41,0,0,1,.79-1.62c.66-1,.11-1.61-.7-1.69a29.44,29.44,0,0,0-4,.25m-.6,43.95,1.06.75a4.53,4.53,0,0,0,.27-1.23,6.24,6.24,0,0,0-.29-1.82c-1-2.84-2-5.67-3-8.49-.36-1-.93-.83-1.52-.18a4.84,4.84,0,0,0-.37,5.31c1.24,1.84,2.47,3.68,3.85,5.66M165.62,196c-1.6,1.2-3.26,2.34-4.78,3.64-.41.36-.42,1.19-.61,1.8a9.1,9.1,0,0,0,1.64.11,6.57,6.57,0,0,0,1.62-.43,11,11,0,0,1,1.25-.6,4.6,4.6,0,0,1,2.12-.21c.91.28,3.62-.69,3.52-1.33-.22-1.37-1.44-.49-2.19-.71s-1-.63-.48-1.35c.31-.41.59-.83.89-1.25a17.31,17.31,0,0,0-1.75-.11,3.4,3.4,0,0,0-1.23.44M101.2,117.1l-.74,2.24c-.66-.45-1.32-.89-2-1.35-.12-.08-.23-.3-.32-.3a4.72,4.72,0,0,0-1.7.32c-.18.08-.2,1,0,1.25,1.52,1.64,3.12,3.21,4.73,4.77a1.58,1.58,0,0,0,1,.4,5.41,5.41,0,0,0,1.32-.36,3.51,3.51,0,0,0-.45-1.12c-1.63-1.83-1.65-1.82-.3-3.84.11-.17.42-.31.4-.43-.16-.85-.37-1.69-.56-2.54a4,4,0,0,0-1.45,1M195,129.89l-.55,1.56c.45-.08,1,0,1.32-.26,3.23-2.76,6.42-5.56,9.59-8.37a2.41,2.41,0,0,0,.39-.84,2.62,2.62,0,0,0-1,0c-.8.37-1.51,1.1-2.33,1.23a4.84,4.84,0,0,0-4,3.56,4.5,4.5,0,0,1-1.38,1.59c-.56.51-1.22.92-2,1.52m-27.39,38.84a8,8,0,0,0,5.31-1.67,2.69,2.69,0,0,1,1.32-.43,2.85,2.85,0,0,0,2.3-1.68c.6-1.09-.09-1.39-.85-1.61a1.54,1.54,0,0,0-1.09.22A37.85,37.85,0,0,0,171,165.9c-1.16.91-2.2,1.74-3.85,1.06a1.22,1.22,0,0,0-1.8.92c0,.22.82.58,1.29.83.16.09.4,0,.9,0m12.94,45.75c-.12.38-.45.84-.34,1.12q2,5,4.13,9.87c.15.33.66.51,1,.75a3.27,3.27,0,0,0,.15-1.25,21.89,21.89,0,0,0-1.19-3.26c-1.15-2.38-2.39-4.72-3.75-7.23M175,152.32a20.07,20.07,0,0,0-.54,3.49c0,.7.43,1.88.88,2,1.1.27.27-.91.63-1.32.06-.07.19-.13.2-.21.42-2.18.88-4.34,1.2-6.53.06-.45-.45-1-.69-1.47a7.76,7.76,0,0,0-1,1.47,13.28,13.28,0,0,0-.63,2.59m68,28.6c-.92-1.62-1.81-3.26-2.79-4.84a1.15,1.15,0,0,0-1.08-.28c-.65.3-1,2.87-.5,3.44a15,15,0,0,0,2.35,2.3c.59.42,1.57,1.13,2-.62M83.74,122.52c-.23,0-.5-.2-.68-.13-.59.22-1.16.52-1.73.8a5.73,5.73,0,0,0,.91,1.4,28.38,28.38,0,0,0,3.46,2.53,1.62,1.62,0,0,0,1.55-.11,1.56,1.56,0,0,0,0-1.55c-1-1-2.2-1.87-3.47-2.94m93.77,1.35c-.26-.72-.13-1.93-1.26-1.71-.44.09-1,1.27-.94,1.91a56.69,56.69,0,0,0,.86,5.63c.05.29.34.53.51.79a3.28,3.28,0,0,0,.67-.79,8.92,8.92,0,0,0,.16-5.83m-84.29-8.73a39.75,39.75,0,0,0-3.93.65c-.42.11-.69.76-1,1.17.45.3.93.89,1.34.84a42,42,0,0,0,4.86-.91c.39-.1.69-.57,1-.87a12.78,12.78,0,0,0-1.22-.86c-.19-.11-.49,0-1,0m75.26-24.08a1.3,1.3,0,0,0-1,1.91c.32.83.79,1.85,2.06,1.71,1-.11,2-.19,2.38-1.24a1.32,1.32,0,0,0-.12-1.12c-.81-.95-1.7-1.88-3.32-1.26M168.33,193a2.63,2.63,0,0,1,2.13-2.29A1,1,0,0,0,171,190a1.13,1.13,0,0,0-.52-.75c-1.1-.71-2.49-.19-3.73,1.49a2.37,2.37,0,0,0-.18,1.87c.24.72.91,1.15,1.76.39M83.14,131.85c-.14.34-.42.69-.39,1a10,10,0,0,0,.45,1.75,6.39,6.39,0,0,0,1.13-.68,7.59,7.59,0,0,0,1.48-1.63c.24-.4,1.31-1,.18-1.45a4.18,4.18,0,0,0-2.11,0c-.27,0-.5.46-.74,1m79.62,9.78c.81-1.25-.08-3.48-1.5-3.57a2,2,0,0,0-1.2.62c-.08.07.19.6.35.89.26.5.6,1,.83,1.47a5.19,5.19,0,0,1,.24,1.12,7,7,0,0,0,1.28-.53m31.31-59.3a2.44,2.44,0,0,0-.43-.42c-.4-.22-.83-.41-1.25-.62a4,4,0,0,0,.05,1.39c.5,1.14,1.11,2.23,1.71,3.33a4.7,4.7,0,0,0,.62.73c.12-.4.4-.83.32-1.19a20.06,20.06,0,0,0-1-3.22m-20,32.06-.87-1.36c-.3.24-.88.51-.85.72a22.13,22.13,0,0,0,.63,3.42c.07.28.57.46.88.68.27-.37.76-.74.76-1.11a7.27,7.27,0,0,0-.55-2.35m-35.82,21.37c0-.94,0-1.89,0-2.84,0-.21-.23-.41-.35-.62-.18.15-.46.27-.52.45a19.73,19.73,0,0,0-.88,3.22,6.61,6.61,0,0,0,.41,2.05c.38-.58.76-1.16,1.15-1.74a1,1,0,0,0,.21-.52m41.54,49.07a6.39,6.39,0,0,0-.08-1.81c-.07-.24-.73-.45-1.11-.42-.94.08-2.06,1.39-1.81,2.07.44,1.17,1.31,1,2.23.61a4.13,4.13,0,0,0,.77-.45m9.33,51.48-1-1.36a5.11,5.11,0,0,0-.14,1.76,16,16,0,0,0,1.19,2.8c.16.31.57.49.87.73.1-.41.38-.86.28-1.21a16,16,0,0,0-1.17-2.72M192.26,247a2.73,2.73,0,0,0-.67-3.37c-.16-.11-.49-.23-.6-.15-1.06.81-.61,1.88-.35,2.85.16.64.58,1.27,1.62.67M128.59,132.15c-.2-1.14-1.07-1.13-1.91-1-.29,0-.79.5-.75.61a3.17,3.17,0,0,0,.85,1.55c.89.61,1.51.11,1.81-1.14M100.9,111.38c0-.31.06-.86-.05-.9a10.68,10.68,0,0,0-2.34-.58c-.17,0-.65.72-.56.86a1.69,1.69,0,0,0,1,.74,4.94,4.94,0,0,0,2-.12m4.51,10.23a4.8,4.8,0,0,0,.86.83,13.27,13.27,0,0,0,1.53.7,11.93,11.93,0,0,0-.53-1.45,2.76,2.76,0,0,0-.73-1C106,120.26,105.39,120.63,105.41,121.61Z"></path> <path class="cls-4" d="M116.48,64.19c-3,1.63-6.06,2.79-7.6,6.23-.62,1.4-2.47,2.27-3.79,3.34s-2.57,2-3.89,3a3,3,0,0,1-.93.31c0-.32-.1-.72,0-1,1.61-2.59,2-6,4.66-7.82a32.18,32.18,0,0,1,5.26-2.5,8.74,8.74,0,0,0,2.49-1.21,13.77,13.77,0,0,1,4.8-3c2.51-.94,4.91-2.21,7.34-3.36a7.23,7.23,0,0,0,3.2-2.48c.46-.69,1.61-.89,2.38-1.41a7.56,7.56,0,0,0,3-8,66.38,66.38,0,0,1-1.81-8.11,3.09,3.09,0,0,0-2.36-2.55c-2.58-.93-3.46-1.81-3.37-4.55,0-1.59.66-3.15.83-4.74a62.49,62.49,0,0,0,.58-8.18c-.11-4.16,1.56-7.6,4-10.68a28.72,28.72,0,0,1,5.16-4.87A14,14,0,0,1,143.87.18a29.29,29.29,0,0,1,6.75,0c3,.48,6,1.87,7.54,4.5a30.41,30.41,0,0,1,4.39,13.34c.15,1.85-.6,3.76-.47,5.61a20,20,0,0,0,1.36,5.13c1.18,3.34,2,4.1-1.54,7.73a14.57,14.57,0,0,0-4.22,7c-.3,1.36-.31,2.78-.49,4.17s-.38,2.64-.62,4a.93.93,0,0,1-.56.57c-.12.05-.46-.19-.56-.37a5.24,5.24,0,0,1-.53-3.56,40.63,40.63,0,0,0,.44-6.14c0-1.06-.76-.58-1.13-.3-1,.76-1.84,1.62-2.77,2.43a5,5,0,0,1-1,.74c-1.61.83-2.52.27-2.58-1.5a4.28,4.28,0,0,0-.38-1.2c-.37.38-.93.7-1.07,1.15a19.78,19.78,0,0,0-.62,3.35c-.15,1.18-.83,1.15-1.48.6-2.14-1.8-4.56-1.12-6.9-.82A1.94,1.94,0,0,0,136.18,48a15.77,15.77,0,0,0,.24,3.48c.16,1.29-.68,1.71-1.66,2a7,7,0,0,0-3.83,2.35c-.32.41-.52.91-.84,1.3s-1,1.42-1.4,1.4c-1.72-.08-3,1-4.33,1.61-2.64,1.27-5.21,2.68-7.88,4.11m32.13-36c.74,1.15,1.49,2.36,3,2.39A3.39,3.39,0,0,1,155,32.81a18.29,18.29,0,0,1,.41,3.6,3.76,3.76,0,0,0,.53,1.06,3.21,3.21,0,0,0,.63-.82c.44-1.23.78-2.49,1.24-3.7a5.6,5.6,0,0,1,.89-1.19,9.85,9.85,0,0,0,.61,1.16c.3.44.59,1,1,1.19a1.34,1.34,0,0,0,1.26-.37,3,3,0,0,0,.36-2.06,89.76,89.76,0,0,0-3.78-8.36c-1.8-3.39-4-6.57-5.77-10-1.45-2.73-2.62-5.63-3.86-8.47-.54-1.25-1.22-1.14-2-.29a12.46,12.46,0,0,0-1.42,2c-1.78,3.07-3.56,6.14-5.28,9.24q-3.13,5.62-6.16,11.29a4.28,4.28,0,0,0,.52,4.69c.17.24.88.45,1,.34a1.73,1.73,0,0,1,2.34-.42c.36.17,1-.2,1.48-.33-.3-.25-.58-.51-.89-.74a6.84,6.84,0,0,1-.82-.54c-.83-.83-.08-1.51.31-2.16.15-.27.6-.59.85-.54,1,.2,2,.54,3,.82,2.9.81,3.91.14,4.3-2.81a3.12,3.12,0,0,1,.45-1.16c.15-.22.48-.33.73-.49.1.3.39.7.29.9-.78,1.58.32,2.41,1.38,3.48m-14.15-6.32c.91-1.18,1.89-2.32,1.37-4-.09-.28-.14-.75,0-.88,1.5-1.26,1.55-3.18,2.28-4.78,1.31-2.87,2.64-5.73,4-8.55.59-1.19,0-1.54-.92-1.32a16.3,16.3,0,0,0-4,1.48,11.69,11.69,0,0,0-4.75,6,12.82,12.82,0,0,0-1.37,4.81c0,2.37,1.68,4.52,1.46,7,0,.36.58.77.9,1.15l1-.9m22.13-4.36.85.85c.76.79,1.63,1.58,2.76.91s1.06-1.75.65-2.95c-1-2.95-1.79-6-2.78-8.92a5.83,5.83,0,0,0-3.87-4,21.68,21.68,0,0,0-3.47-1c-.45-.07-1.69,0-1.09,1.26.48,1.05.72,2.22,1.25,3.24,1.81,3.51,3.69,7,5.7,10.62m-25.89.9a12.15,12.15,0,0,0-.32-1.82,4.68,4.68,0,0,0-.73-1,3.14,3.14,0,0,0-.43,1c-.06,1.1,0,2.2,0,3.3,0,2.12.15,4.25-.05,6.34a27,27,0,0,1-1.16,4c-.09.33.19.75.29,1.14.35-.14.87-.17,1-.43a26.93,26.93,0,0,0,2.26-4.15,5.84,5.84,0,0,0,0-2.73c-.23-1.78-.58-3.55-.88-5.62m13.1-14.6c-.82,1.31-1.65,2.61-2.41,4-.17.28-.06.73-.07,1.1.31-.17.73-.25.91-.51a35.59,35.59,0,0,0,2.2-3.43c.14-.24-.21-.73-.63-1.11M131.6,34a2.09,2.09,0,0,0,.2-.5,7.12,7.12,0,0,0,0-.8c-.2.07-.5.08-.59.22a6.92,6.92,0,0,0-.49,1.11A1.78,1.78,0,0,0,131.6,34Z"></path> <path class="cls-5" d="M128.07,118.23c-.75.64-1.39,1.24-2.1,1.75-.17.13-.54,0-.82,0,0-.24,0-.56.1-.71a25.52,25.52,0,0,1,2.44-2.74c1.92-1.73,3.94-3.34,5.89-5a1.86,1.86,0,0,0,.4-2.56A10.77,10.77,0,0,1,134.24,97a31.84,31.84,0,0,1,3-3.86c.26-.3.94-.23,1.42-.33-.16.39-.22.91-.51,1.13-4.74,3.6-2,11.88,2.35,14,5.15,2.5,10.76,1.54,14-2,2.86-3.11,3.36-8.33.37-11.32-.23-.23-.14-.8-.2-1.21.35.1.82.09,1,.32,3.63,3.91,5.42,8.41,3.51,13.65-1.48,4-4.7,6.51-8.77,7.76a14.87,14.87,0,0,1-12-1.49,7.29,7.29,0,0,1-1.5-1.07c-1.44-1.42-1.21-1.42-2.76,0C132.27,114.5,130.19,116.31,128.07,118.23Z"></path> <path class="cls-6" d="M130.4,66.07c-3.72,1-7.29,1.87-10.84,2.89-1.37.4-2.65,1.11-4,1.61a2.77,2.77,0,0,1-1.06-.07,4.22,4.22,0,0,1,.57-.81c1.73-1.56,4-1.94,6.09-2.71A51.71,51.71,0,0,1,132,64.53c5.45-.75,10.86-1.85,16.38-1.44,3.1.24,6.19.78,9.28,1.18,2.33.3,4.76.3,7,1,2,.63,3-.09,3.84-1.61a13.1,13.1,0,0,1,.84-1.16c.7-1,.83-1.67-.35-2.62a15.15,15.15,0,0,0-7.6-3.13,1.24,1.24,0,0,1-.65-.23c-.5-.46-.95-1-1.42-1.46a6.52,6.52,0,0,1,2.1-.08,58.81,58.81,0,0,1,5.74,2.1,12.9,12.9,0,0,1,2.74,1.73c1.91,1.48,2.08,2.57.45,4.75-1.8,2.4-3.82,4.63-5.71,7-1.05,1.31-2.48.92-3.81,1-.11,0-.35-.42-.32-.47.29-.33.61-.87,1-.9,1.9-.15,3-1.51,4.16-2.7a7.91,7.91,0,0,0,.52-.63,3.46,3.46,0,0,0-.89-.38c-3.5-.52-7-1.28-10.51-1.46-4.91-.25-9.85-.16-14.78,0-2.64.07-5.27.55-7.9.87C131.57,65.84,131.06,66,130.4,66.07Z"></path> <path class="cls-7" d="M173.52,71.87A4,4,0,0,1,169.83,73a5.09,5.09,0,0,1-1.5-.86c.49-.21,1-.62,1.46-.57a3.93,3.93,0,0,0,3.58-1.59c.65-.73.32-1-.39-1.16-1-.28-2-.55-2.95-.86a7.49,7.49,0,0,1-1.06-.53c.54-.23,1.12-.7,1.64-.64a8.32,8.32,0,0,1,2.78.86,1.44,1.44,0,0,0,2-.39,3.61,3.61,0,0,0,.43-1.9c0-.37-.42-.74-.47-1.13a2.25,2.25,0,0,1,.2-1.48c.18-.21.93-.06,1.38.09a52.19,52.19,0,0,1,5.89,2.11A36.53,36.53,0,0,1,189,68.54a12.08,12.08,0,0,1,3,3.68,65.1,65.1,0,0,1,2.8,6,2.5,2.5,0,0,1,.08.83c-.25-.1-.6-.13-.72-.31a43.4,43.4,0,0,1-3.5-5.62c-.84-1.86-2.32-2.68-3.95-3.47-.23-.1-.57,0-.86.07a3,3,0,0,0,.19.91c.61,1.06,1.28,2.08,1.89,3.13a2.74,2.74,0,0,1,.18.92c-.34-.09-.83-.07-1-.29a73.3,73.3,0,0,1-4.89-6.55c-1.29-2.07-2.39-2.78-4.37-.9a47,47,0,0,0-3.22,3.9A9.55,9.55,0,0,1,173.52,71.87Z"></path> <path class="cls-8" d="M81,94.3c2.49-2.69,4.78-5.43,7.34-7.88s5.59-4.87,8.43-7.25c.28-.23.81-.17,1.22-.25-.12.38-.12.9-.37,1.13-2,1.78-4.13,3.43-6.08,5.25a85,85,0,0,0-6.56,6.59c-2.76,3.21-5.29,6.62-7.9,10-.61.79-1.11,1.66-1.73,2.44-1.19,1.5,0,2.51.72,3.57,1.38,2.05,2.85,4,4.22,6.09a4.4,4.4,0,0,1,.31,1.5c-.48-.29-1.11-.47-1.42-.89-1.33-1.79-2.55-3.65-3.82-5.48-.28-.39-.61-.74-.9-1.13-1.86-2.47-.33-4.42,1-6.33C77.23,99.17,79.07,96.78,81,94.3Z"></path> <path class="cls-9" d="M205.13,87.67c5,4.61,8.67,10.13,12.5,15.53,1.54,2.17.08,3.91-1,5.63-1,1.52-2.07,3-3.13,4.41a7.26,7.26,0,0,1-.89.86c0-.52-.2-1.15,0-1.54,1-1.7,2.09-3.36,3.19-5,1.64-2.42,1.65-2.4,0-4.7a69.46,69.46,0,0,0-4.48-6.39c-3.34-3.75-6.89-7.29-10.4-10.87-1.24-1.27-2.62-2.4-3.89-3.64-.24-.23-.28-.67-.41-1,.44.05,1-.06,1.31.18C200.35,83.26,202.69,85.44,205.13,87.67Z"></path> <path class="cls-10" d="M68.39,237.66c-2.12.1-4.08.22-6,.27-.19,0-.39-.44-.59-.67.49-.27,1-.76,1.45-.77,7.37-.05,14.73-.08,22.1,0,2.78,0,5.55.39,8.32.56.92.06,1.84,0,2.76,0,.31,0,.6.35.9.54-.28.21-.56.61-.84.6-1.81,0-3.62-.17-5.44-.26-.3,0-.6,0-.9,0-1.22,0-2.44,0-3.66,0Z"></path> <path class="cls-11" d="M234.33,183.7c-1.81-3.72-3.55-7.36-5.29-11-.89-1.88-1.78-3.77-2.65-5.67a4.56,4.56,0,0,1-.2-.92c.32.16.78.23.92.48q1.51,2.76,2.93,5.56c2,4,4,8,5.91,12,1.49,3.1,2.86,6.24,4.25,9.38.09.19-.15.53-.24.79-.22-.17-.53-.3-.64-.53-1.31-2.72-2.57-5.46-3.87-8.18A18.71,18.71,0,0,0,234.33,183.7Z"></path> <path class="cls-12" d="M168.4,45.23c2.59,4.89,5.1,9.7,7.59,14.53.12.23,0,.59,0,.89-.3-.11-.71-.13-.89-.34-2.65-3.16-4-7-5.86-10.63-.81-1.62-1.66-3.22-2.39-4.87-1-2.19-1.88-4.42-2.77-6.66-.1-.25.09-.61.14-.93.27.2.67.34.79.6C166.14,40.25,167.23,42.71,168.4,45.23Z"></path> <path class="cls-13" d="M126.49,43.19c.7-1.51,1.36-2.89,2.13-4.22.21-.36.75-.52,1.14-.78,0,.46.19,1,0,1.38-1.62,3.34-3.32,6.63-5,10-1,2-1.83,4.05-2.79,6.06a4.94,4.94,0,0,1-.93,1c-.08-.54-.38-1.17-.2-1.61.68-1.72,1.47-3.4,2.28-5.07C124.26,47.73,125.38,45.54,126.49,43.19Z"></path> <path class="cls-14" d="M183.76,76.84c.62,1,1.22,2,1.7,3,.15.32,0,.8,0,1.21-.38-.24-.92-.38-1.11-.72-.77-1.37-1.45-2.79-2.13-4.21-1-2-1.75-4-3.91-5.09a3.53,3.53,0,0,1-.77-.73,6.54,6.54,0,0,1,1.37-.28c.22,0,.43.39.68.48a2.51,2.51,0,0,0,.81,0,5.75,5.75,0,0,1-.29-.62c-.1-.31-.16-.64-.24-1a7.44,7.44,0,0,1,.84.64q1.59,1.56,3.14,3.17a2.16,2.16,0,0,1,.3.63,2.27,2.27,0,0,1-.82,0c-.61-.2-1.19-.48-1.78-.72a10,10,0,0,0,1.13,1.57A3.21,3.21,0,0,1,183.76,76.84Z"></path> <path class="cls-15" d="M56.34,185.28c-1.7,3.6-3.4,7.06-5.13,10.5-.13.26-.44.43-.66.64-.18-.31-.53-.65-.49-.94a7.66,7.66,0,0,1,.65-2.57c1.72-3.15,3.52-6.26,5.36-9.34.33-.55,1-.87,1.57-1.3a10.66,10.66,0,0,1-.47,1.7C57,184.4,56.63,184.75,56.34,185.28Z"></path> <path class="cls-16" d="M181,139.83c-.53.12-.91.23-1.3.35.15-.38.18-.93.46-1.11,1.16-.78,2.4-1.44,3.6-2.15,2.24-1.33,4.46-2.72,6.74-4a5.68,5.68,0,0,1,1.84-.28c-.37.49-.64,1.15-1.13,1.43-3.22,1.86-6.48,3.64-9.73,5.45A2.13,2.13,0,0,1,181,139.83Z"></path> <path class="cls-17" d="M104.74,135.39c2.23,1.13,4.41,2.15,6.55,3.26.4.21.63.75.94,1.13-.51,0-1.11.21-1.52,0-2.3-1.1-4.56-2.29-6.82-3.46a3.84,3.84,0,0,1-1-.75,7,7,0,0,1-.66-1.13,8.45,8.45,0,0,1,1.52.24A3.9,3.9,0,0,1,104.74,135.39Z"></path> <path class="cls-18" d="M111.36,72a11,11,0,0,1-1.53.9,3.13,3.13,0,0,1-.93.1,2.11,2.11,0,0,1,.2-.82c.25-.36.57-.83.94-.93,2.23-.59,3-2.62,4.4-4.12a6.58,6.58,0,0,1,1.18-1.06c.19-.12.52,0,.79,0,0,.24,0,.54-.15.72-1,1.3-1.91,2.63-3,3.85A11,11,0,0,1,111.36,72Z"></path> <path class="cls-19" d="M201.52,115.37a12.92,12.92,0,0,1-1.1-2.05c-.11-.31.12-.74.2-1.12.28.18.66.3.81.56,1.06,1.86,2.1,3.72,3.07,5.63.18.37,0,.94-.05,1.42-.35-.26-.84-.43-1-.77C202.75,117.87,202.19,116.65,201.52,115.37Z"></path> <path class="cls-20" d="M144.55,76.31c0,1.71,0,3.28,0,4.85,0,.29-.28.57-.43.86-.25-.29-.71-.57-.72-.87-.07-1.7,0-3.4,0-5.1A3.51,3.51,0,0,1,144.55,76.31Z"></path> <path class="cls-21" d="M193,95c.46.91,1,1.65,1.35,2.44.12.23,0,.6,0,.9-.31,0-.8.06-.9-.1-.86-1.38-1.65-2.8-2.44-4.22,0-.07.14-.37.26-.4s.64-.13.78,0A5.34,5.34,0,0,1,193,95Z"></path> <path class="cls-22" d="M110.3,75.18c.71-.8,1.31-1.55,2-2.24.12-.13.46,0,.7,0a2.51,2.51,0,0,1-.12.63c-.51.93-1,1.87-1.58,2.77a6,6,0,0,1-.92.9c-.08-.51-.17-1-.23-1.53A1.11,1.11,0,0,1,110.3,75.18Z"></path> <path class="cls-23" d="M188.57,85.87a28.48,28.48,0,0,1,1.12,2.64,2.45,2.45,0,0,1,0,.93c-.28-.1-.68-.12-.81-.32a21.9,21.9,0,0,1-1.52-2.82c-.15-.34.07-.84.13-1.26C187.81,85.29,188.15,85.54,188.57,85.87Z"></path> <path class="cls-24" d="M106.54,85.57a2.8,2.8,0,0,0-.22.31c-.33.42-.65.84-1,1.27-.18-.31-.58-.73-.5-.91.31-.64.66-1.51,1.21-1.73C106.92,84.17,106.81,84.93,106.54,85.57Z"></path> <path class="cls-25" d="M109.85,77.89a6.49,6.49,0,0,1-.25,1.86c-.07.21-.5.29-.77.43-.1-.37-.39-.86-.26-1.1A4.07,4.07,0,0,1,109.85,77.89Z"></path> <path class="cls-26" d="M119.19,60a2.55,2.55,0,0,1-.83-.3,13.72,13.72,0,0,1,.89-1.54c.13-.16.52-.12.78-.17C119.78,58.61,119.52,59.26,119.19,60Z"></path> <path class="cls-27" d="M102.33,94.3c-.37-.34-.9-.75-.89-1.15s.62-.69,1-1C102.4,92.82,102.4,93.52,102.33,94.3Z"></path> <path class="cls-28" d="M159.6,113.94c.17.52.41.89.5,1.28a2,2,0,0,1-.17.83c-.21-.07-.56-.09-.61-.22a13.65,13.65,0,0,1-.59-2c0-.08.35-.28.56-.36S159.49,113.68,159.6,113.94Z"></path> <path class="cls-29" d="M197.61,105a7.12,7.12,0,0,1,.82,1.23l-.77.18A8,8,0,0,1,197.61,105Z"></path> <path class="cls-30" d="M207.69,119.58a3.23,3.23,0,0,1-.26-.94l.71,0A9.38,9.38,0,0,1,207.69,119.58Z"></path> <path class="cls-31" d="M191.43,77a.94.94,0,0,1-.72.13c-.19-.1-.26-.45-.38-.69C190.67,76.59,191,76.75,191.43,77Z"></path> <path class="cls-32" d="M173.67,61a1.68,1.68,0,0,1,.25-.66l.41.42A1.78,1.78,0,0,1,173.67,61Z"></path> <path class="cls-33" d="M242.38,238c2.65,0,5.16-.09,7.65,0a16.48,16.48,0,0,1,3.66.91c.2.06.29.45.43.7a4.48,4.48,0,0,0-.72-.11c-.84,0-1.69,0-2.53,0-3.5,0-7,0-10.5,0-.86,0-1.72.25-2.58.26a3.36,3.36,0,0,1-1.13-.43c.35-.35.67-.95,1.06-1C239.21,238.1,240.73,238.06,242.38,238Z"></path> <path class="cls-34" d="M255.93,224.72c2,3.65,3.84,7.29,5.67,10.95a.67.67,0,0,1,0,.42c-.11.61-.24,1.2-.37,1.8a12.11,12.11,0,0,1-.95-1.42q-2.47-5-4.88-10a7.78,7.78,0,0,1-.41-1.63Z"></path> <path class="cls-35" d="M260.45,239.77c-1.32-.2-2.5-.37-3.65-.63-.23,0-.38-.47-.57-.72.29-.16.6-.46.86-.43,1.1.14,2.17.46,3.26.56C262,238.7,261.09,239.25,260.45,239.77Z"></path> <path class="cls-36" d="M77.34,143.66c-3.09,5.9-6.11,11.72-9.11,17.55-.68,1.32-1.28,2.68-2,4a2,2,0,0,1-.84.78c-.22.11-.57,0-.86,0a3.71,3.71,0,0,1,.22-.74c3.16-6.16,6.35-12.31,9.49-18.49,1.15-2.27,2.19-4.61,3.32-6.89.18-.35.61-.58.92-.86.1.47.38,1,.25,1.42A26.12,26.12,0,0,1,77.34,143.66Z"></path> <path class="cls-37" d="M222.74,157.36a3.79,3.79,0,0,1,.13-.88c.19.15.44.27.53.47a2.43,2.43,0,0,1,0,.77A5.24,5.24,0,0,1,222.74,157.36Z"></path> <path class="cls-38" d="M219.2,148.86c-.2,0-.5-.12-.56-.32s.21-.39.34-.59A6.78,6.78,0,0,1,219.2,148.86Z"></path> <path class="cls-39" d="M98.87,98.66c.11,0,.17,0,.17,0,0,.41.06.81.07,1.22,0,0-.2,0-.3,0A7.36,7.36,0,0,1,98.87,98.66Z"></path> <path class="cls-40" d="M94.58,107.92a2.06,2.06,0,0,1,.29-.91l.56.41A5.16,5.16,0,0,1,94.58,107.92Z"></path> <path class="cls-41" d="M211.45,134.78c.28-.17.53-.38.69-.33a.88.88,0,0,1,.43.54c.19.79.34,1.6.48,2.4,0,.06-.27.16-.41.24C212.22,136.71,211.8,135.78,211.45,134.78Z"></path> <path class="cls-42" d="M137.92,23.93c-.8,1.67-1.59,3.19-2.42,4.7-.1.19-.37.28-.57.42a3.13,3.13,0,0,1-.3-.68,1,1,0,0,1,.14-.53c1.25-2.39,2.49-4.78,3.77-7.15.15-.27.51-.43.77-.65,0,.36.22.77.09,1C139,22,138.43,22.88,137.92,23.93Z"></path> <path class="cls-43" d="M151.85,19.34a12.27,12.27,0,0,1,.25,1.4c-.48-.16-1-.3-1.43-.48a1.58,1.58,0,0,1-.7-.42,11,11,0,0,1-.75-1.34,17.54,17.54,0,0,1,1.92.16C151.38,18.71,151.56,19.05,151.85,19.34Z"></path> <path class="cls-44" d="M141.84,20a1.9,1.9,0,0,1,.15-.9l1,.54A12.06,12.06,0,0,1,141.84,20Z"></path> </g> </g> </g> </g> </svg> 